<svg width="36" height="391" viewBox="0 0 36 391" fill="none" xmlns="http://www.w3.org/2000/svg">
<path d="M28.432 380.452C28.432 382.012 27.856 383.512 26.704 384.952C25.528 386.368 23.932 387.508 21.916 388.372C19.9 389.236 17.68 389.668 15.256 389.668C12.856 389.668 10.696 389.26 8.776 388.444C6.856 387.604 5.356 386.536 4.276 385.24C3.196 383.944 2.656 382.612 2.656 381.244C2.656 379.54 3.016 378.172 3.736 377.14C4.432 376.084 5.104 375.328 5.752 374.872C5.896 374.776 6.028 374.692 6.148 374.62C6.268 374.524 6.388 374.476 6.508 374.476C6.652 374.476 6.844 374.608 7.084 374.872C7.948 375.976 8.704 376.768 9.352 377.248C9.664 377.488 9.904 377.692 10.072 377.86C10.216 378.028 10.288 378.196 10.288 378.364C10.288 378.532 10.168 378.724 9.928 378.94C9.376 379.444 8.992 379.84 8.776 380.128C8.536 380.392 8.416 380.716 8.416 381.1C8.416 381.7 8.668 382.3 9.172 382.9C9.676 383.476 10.516 383.968 11.692 384.376C12.844 384.784 14.332 384.988 16.156 384.988C17.932 384.988 19.348 384.736 20.404 384.232C21.436 383.704 22.156 383.116 22.564 382.468C22.972 381.796 23.176 381.22 23.176 380.74C23.176 380.308 23.032 379.864 22.744 379.408C22.432 378.952 22.108 378.556 21.772 378.22C21.724 378.172 21.64 378.1 21.52 378.004C21.4 377.884 21.34 377.776 21.34 377.68C21.34 377.56 21.388 377.416 21.484 377.248L23.176 374.188C23.224 374.092 23.296 373.948 23.392 373.756C23.464 373.54 23.536 373.396 23.608 373.324C23.68 373.228 23.776 373.18 23.896 373.18C24.016 373.18 24.148 373.216 24.292 373.288C25.18 373.816 26.092 374.644 27.028 375.772C27.964 376.9 28.432 378.46 28.432 380.452ZM28.324 356.309C28.276 357.629 28.264 358.529 28.288 359.009C28.312 359.297 28.252 359.477 28.108 359.549C27.964 359.597 27.796 359.621 27.604 359.621C27.388 359.597 27.232 359.585 27.136 359.585L26.632 359.549C27.184 360.653 27.592 361.565 27.856 362.285C28.096 363.005 28.216 363.929 28.216 365.057C28.216 366.161 28.048 367.085 27.712 367.829C27.352 368.549 26.74 369.221 25.876 369.845C25.348 370.277 24.556 370.589 23.5 370.781C22.444 370.949 21.52 371.033 20.728 371.033H14.464H8.416C8.128 371.033 7.936 370.997 7.84 370.925C7.72 370.829 7.636 370.685 7.588 370.493C7.564 370.421 7.552 370.289 7.552 370.097L7.588 369.017C7.588 368.609 7.792 368.405 8.2 368.405L13.348 368.513C14.788 368.585 15.964 368.621 16.876 368.621L19.396 368.657C21.604 368.657 23.044 368.501 23.716 368.189C24.34 367.877 24.808 367.601 25.12 367.361C25.408 367.097 25.624 366.761 25.768 366.353C25.888 365.921 25.948 365.309 25.948 364.517C25.948 363.677 25.792 362.813 25.48 361.925C25.144 361.013 24.76 360.197 24.328 359.477C22.6 359.405 20.464 359.369 17.92 359.369C15.664 359.369 13.192 359.417 10.504 359.513L7.876 359.585C7.588 359.585 7.444 359.381 7.444 358.973V358.217C7.444 358.025 7.456 357.785 7.48 357.497C7.48 357.209 7.468 356.885 7.444 356.525V356.345C7.444 356.081 7.552 355.949 7.768 355.949H9.064L10.792 355.913C14.608 355.793 16.804 355.745 17.38 355.769H26.992C27.136 355.745 27.328 355.733 27.568 355.733C27.856 355.733 28.048 355.781 28.144 355.877C28.264 355.949 28.324 356.093 28.324 356.309ZM28 351.24C28 351.6 27.856 351.78 27.568 351.78H20.692H17.668L7.444 351.528C7.18 351.528 7.036 351.468 7.012 351.348C6.964 351.252 6.94 350.976 6.94 350.52C6.94 349.608 6.964 349.104 7.012 349.008C7.012 348.936 7.06 348.876 7.156 348.828C7.228 348.756 7.288 348.72 7.336 348.72L8.596 348.756L7.948 347.172C6.916 344.796 6.4 343.428 6.4 343.068V343.032C6.4 342.864 6.616 342.732 7.048 342.636C7.576 342.636 7.984 342.624 8.272 342.6C8.536 342.6 8.788 342.576 9.028 342.528L9.82 342.492H9.892C9.988 342.492 10.084 342.528 10.18 342.6C10.276 342.672 10.336 342.732 10.36 342.78C10.552 343.548 10.708 344.376 10.828 345.264C10.924 346.128 10.984 346.632 11.008 346.776L11.296 348.828H16.372H17.956L19.828 348.756C20.524 348.756 21.112 348.768 21.592 348.792C22.384 348.864 23.296 348.9 24.328 348.9H25.552C26.752 348.9 27.496 348.948 27.784 349.044C27.952 349.044 28.036 349.236 28.036 349.62L28 351.24ZM5.32 336.873C5.32 337.521 5.068 338.121 4.564 338.673C4.06 339.225 3.436 339.501 2.692 339.501C2.044 339.501 1.468 339.261 0.963998 338.781C0.435998 338.301 0.171998 337.725 0.171998 337.053C0.171998 336.261 0.375998 335.553 0.783998 334.929C1.192 334.305 1.756 333.993 2.476 333.993C3.076 333.993 3.592 334.149 4.024 334.461C4.456 334.773 4.78 335.157 4.996 335.613C5.212 336.045 5.32 336.465 5.32 336.873ZM28.288 340.113C28.312 340.449 28.252 340.665 28.108 340.761C27.964 340.833 27.724 340.881 27.388 340.905C27.22 340.953 26.836 340.929 26.236 340.833C26.092 340.833 25.888 340.821 25.624 340.797C25.336 340.749 25.084 340.725 24.868 340.725C24.7 340.725 23.356 340.641 20.836 340.473C20.164 340.449 19.564 340.413 19.036 340.365C18.508 340.317 18.1 340.293 17.812 340.293L14.896 340.221L12.196 340.149L10.576 340.077L9.532 340.005H8.272C7.84 340.005 7.54 339.945 7.372 339.825C7.204 339.705 7.12 339.537 7.12 339.321C7.12 339.225 7.132 339.141 7.156 339.069C7.18 338.853 7.192 338.613 7.192 338.349C7.168 338.061 7.156 337.797 7.156 337.557V336.405C7.156 335.637 7.168 335.133 7.192 334.893C7.216 334.629 7.264 334.449 7.336 334.353C7.408 334.233 7.516 334.173 7.66 334.173C7.78 334.173 7.9 334.185 8.02 334.209C8.116 334.233 8.212 334.257 8.308 334.281C9.82 334.521 11.548 334.653 13.492 334.677C14.02 334.701 14.812 334.713 15.868 334.713L19.468 334.677C19.756 334.653 20.056 334.641 20.368 334.641L21.556 334.605C22.564 334.557 23.332 334.533 23.86 334.533C24.22 334.533 24.448 334.545 24.544 334.569C24.616 334.593 24.844 334.605 25.228 334.605L26.812 334.569C27.076 334.545 27.388 334.533 27.748 334.533C28.156 334.509 28.336 334.845 28.288 335.541V340.113ZM28.792 323.492C28.792 326.66 27.58 328.772 25.156 329.828C22.708 330.884 20.092 331.412 17.308 331.412C14.62 331.412 12.472 331.004 10.864 330.188C9.232 329.372 8.092 328.388 7.444 327.236C6.796 326.06 6.472 324.884 6.472 323.708C6.472 321.5 7.06 319.832 8.236 318.704C9.388 317.576 10.768 316.856 12.376 316.544C13.96 316.232 15.748 316.076 17.74 316.076C19.348 316.076 21.016 316.352 22.744 316.904C24.448 317.432 25.888 318.26 27.064 319.388C28.216 320.492 28.792 321.86 28.792 323.492ZM21.808 323.744C21.808 322.952 21.436 322.376 20.692 322.016C19.948 321.632 19.048 321.44 17.992 321.44C16.624 321.44 15.664 321.62 15.112 321.98C14.536 322.316 14.248 322.832 14.248 323.528C14.248 325.016 15.592 325.76 18.28 325.76C19.288 325.76 20.128 325.628 20.8 325.364C21.472 325.1 21.808 324.56 21.808 323.744ZM28.612 306.469C28.612 307.933 28.432 309.145 28.072 310.105C27.712 311.065 27.448 311.653 27.28 311.869C27.088 312.061 26.644 312.505 25.948 313.201C25.804 313.345 25.708 313.381 25.66 313.309C25.54 313.261 25.408 313.177 25.264 313.057L24.688 312.589C24.52 312.469 24.244 312.253 23.86 311.941C23.788 311.869 23.752 311.785 23.752 311.689C23.752 311.593 23.812 311.461 23.932 311.293C24.028 311.125 24.136 310.981 24.256 310.861C24.28 310.837 24.4 310.705 24.616 310.465C24.808 310.201 24.988 309.829 25.156 309.349C25.3 308.869 25.372 308.341 25.372 307.765C25.372 306.997 25.228 306.337 24.94 305.785C24.628 305.233 23.992 304.957 23.032 304.957C22.264 304.957 21.616 305.125 21.088 305.461C20.56 305.773 20.128 306.169 19.792 306.649C19.432 307.129 19.024 307.789 18.568 308.629C18.04 309.565 17.572 310.321 17.164 310.897C16.732 311.473 16.156 311.965 15.436 312.373C14.716 312.757 13.828 312.949 12.772 312.949C11.524 312.949 10.42 312.613 9.46 311.941C8.5 311.269 7.768 310.357 7.264 309.205C6.736 308.029 6.472 306.733 6.472 305.317C6.472 303.061 6.952 301.357 7.912 300.205C8.848 299.029 9.328 298.417 9.352 298.369C9.424 298.273 9.508 298.225 9.604 298.225C9.676 298.225 9.748 298.249 9.82 298.297C9.892 298.345 9.964 298.381 10.036 298.405C10.18 298.501 10.432 298.669 10.792 298.909C11.152 299.125 11.404 299.305 11.548 299.449C11.62 299.497 11.716 299.557 11.836 299.629C11.932 299.701 11.992 299.773 12.016 299.845C12.04 299.893 12.052 299.965 12.052 300.061C12.004 300.157 11.752 300.493 11.296 301.069C10.816 301.645 10.372 302.293 9.964 303.013C9.556 303.709 9.352 304.309 9.352 304.813C9.352 305.341 9.532 305.713 9.892 305.929C10.228 306.145 10.804 306.253 11.62 306.253C12.22 306.253 12.724 306.109 13.132 305.821C13.54 305.533 13.828 305.257 13.996 304.993C14.164 304.729 14.44 304.225 14.824 303.481C15.184 302.593 15.556 301.825 15.94 301.177C16.324 300.505 16.996 299.869 17.956 299.269C18.916 298.645 20.188 298.333 21.772 298.333C26.332 298.333 28.612 301.045 28.612 306.469ZM5.32 291.627C5.32 292.275 5.068 292.875 4.564 293.427C4.06 293.979 3.436 294.255 2.692 294.255C2.044 294.255 1.468 294.015 0.963998 293.535C0.435998 293.055 0.171998 292.479 0.171998 291.807C0.171998 291.015 0.375998 290.307 0.783998 289.683C1.192 289.059 1.756 288.747 2.476 288.747C3.076 288.747 3.592 288.903 4.024 289.215C4.456 289.527 4.78 289.911 4.996 290.367C5.212 290.799 5.32 291.219 5.32 291.627ZM28.288 294.867C28.312 295.203 28.252 295.419 28.108 295.515C27.964 295.587 27.724 295.635 27.388 295.659C27.22 295.707 26.836 295.683 26.236 295.587C26.092 295.587 25.888 295.575 25.624 295.551C25.336 295.503 25.084 295.479 24.868 295.479C24.7 295.479 23.356 295.395 20.836 295.227C20.164 295.203 19.564 295.167 19.036 295.119C18.508 295.071 18.1 295.047 17.812 295.047L14.896 294.975L12.196 294.903L10.576 294.831L9.532 294.759H8.272C7.84 294.759 7.54 294.699 7.372 294.579C7.204 294.459 7.12 294.291 7.12 294.075C7.12 293.979 7.132 293.895 7.156 293.823C7.18 293.607 7.192 293.367 7.192 293.103C7.168 292.815 7.156 292.551 7.156 292.311V291.159C7.156 290.391 7.168 289.887 7.192 289.647C7.216 289.383 7.264 289.203 7.336 289.107C7.408 288.987 7.516 288.927 7.66 288.927C7.78 288.927 7.9 288.939 8.02 288.963C8.116 288.987 8.212 289.011 8.308 289.035C9.82 289.275 11.548 289.407 13.492 289.431C14.02 289.455 14.812 289.467 15.868 289.467L19.468 289.431C19.756 289.407 20.056 289.395 20.368 289.395L21.556 289.359C22.564 289.311 23.332 289.287 23.86 289.287C24.22 289.287 24.448 289.299 24.544 289.323C24.616 289.347 24.844 289.359 25.228 289.359L26.812 289.323C27.076 289.299 27.388 289.287 27.748 289.287C28.156 289.263 28.336 289.599 28.288 290.295V294.867ZM28.144 281.161C28.144 282.313 28.012 283.177 27.748 283.753C27.46 284.305 27.064 284.677 26.56 284.869C26.032 285.037 25.336 285.121 24.472 285.121L22.168 285.085C21.76 285.061 21.076 285.049 20.116 285.049L15.904 285.085C15.544 285.109 15.16 285.121 14.752 285.121C14.296 285.145 13.792 285.157 13.24 285.157C12.664 285.133 12.136 285.121 11.656 285.121H9.712H8.596V286.489C8.596 286.609 8.572 286.693 8.524 286.741C8.476 286.789 8.44 286.813 8.416 286.813C8.224 286.837 7.996 286.849 7.732 286.849C7.54 286.849 7.324 286.825 7.084 286.777V285.121L6.832 285.085L5.464 285.049H3.916C3.34 285.073 2.956 285.037 2.764 284.941C2.548 284.821 2.44 284.653 2.44 284.437C2.44 284.317 2.452 284.221 2.476 284.149C2.5 283.957 2.512 283.753 2.512 283.537C2.488 283.297 2.476 283.081 2.476 282.889V281.989C2.476 281.365 2.488 280.933 2.512 280.693C2.536 280.429 2.596 280.249 2.692 280.153C2.788 280.033 2.932 279.973 3.124 279.973C3.196 279.973 3.472 279.997 3.952 280.045C4.096 280.069 4.432 280.117 4.96 280.189C5.464 280.237 6.148 280.285 7.012 280.333L7.048 277.597V277.417C7.048 277.081 7.12 276.901 7.264 276.877L7.948 276.805C8.116 276.781 8.164 276.769 8.092 276.769C8.02 276.745 8.044 276.733 8.164 276.733C8.26 276.733 8.344 276.769 8.416 276.841C8.488 276.889 8.524 276.949 8.524 277.021L8.56 277.849C8.632 278.641 8.668 279.469 8.668 280.333H8.812H9.928H12.304C12.904 280.309 13.744 280.297 14.824 280.297L17.992 280.333L19.432 280.261C21.16 280.189 22.036 280.153 22.06 280.153H22.78C23.26 280.153 23.608 280.093 23.824 279.973C24.016 279.829 24.112 279.625 24.112 279.361C24.112 278.761 24.1 278.341 24.076 278.101C24.028 277.861 24.004 277.657 24.004 277.489C24.004 277.393 24.112 277.309 24.328 277.237C24.544 277.165 24.712 277.117 24.832 277.093L25.876 276.805C26.236 276.709 26.536 276.589 26.776 276.445C26.8 276.421 26.836 276.409 26.884 276.409C26.98 276.409 27.088 276.469 27.208 276.589C27.616 277.237 27.88 277.885 28 278.533C28.096 279.181 28.144 280.057 28.144 281.161ZM33.796 266.188C33.82 266.548 33.796 267.052 33.724 267.7C33.676 268.18 33.652 268.648 33.652 269.104C33.652 269.2 33.664 269.5 33.688 270.004C33.736 270.484 33.76 270.88 33.76 271.192C33.76 271.456 33.748 271.6 33.724 271.624C33.7 271.672 33.628 271.696 33.508 271.696C33.364 271.696 33.22 271.672 33.076 271.624C32.932 271.552 32.848 271.516 32.824 271.516L31.42 271.012C31.324 270.964 31.192 270.916 31.024 270.868C30.856 270.82 30.652 270.748 30.412 270.652L26.884 269.68L17.524 272.488C16.084 272.872 14.332 273.328 12.268 273.856C10.18 274.36 8.584 274.744 7.48 275.008C7.336 275.056 7.252 275.08 7.228 275.08C7.084 275.08 7.012 274.96 7.012 274.72C7.012 274.576 7.024 274.42 7.048 274.252C7.072 274.06 7.084 273.868 7.084 273.676L7.048 272.164L6.976 270.256C6.952 269.872 7 269.62 7.12 269.5C7.24 269.38 7.468 269.272 7.804 269.176C7.66 269.176 9.052 268.864 11.98 268.24L16.984 267.376L19.72 266.908V266.692L17.416 266.296C16.984 266.248 16.36 266.116 15.544 265.9C14.728 265.66 14.224 265.516 14.032 265.468C13.408 265.324 12.676 265.12 11.836 264.856C11.548 264.784 10.936 264.628 10 264.388C9.064 264.124 8.368 263.968 7.912 263.92C7.456 263.872 7.18 263.788 7.084 263.668C6.964 263.524 6.916 263.356 6.94 263.164C6.94 262.972 6.94 262.84 6.94 262.768C6.94 260.68 6.964 259.36 7.012 258.808C7.06 258.424 7.168 258.232 7.336 258.232C7.384 258.232 7.528 258.256 7.768 258.304C7.912 258.376 8.152 258.484 8.488 258.628C8.824 258.748 9.1 258.844 9.316 258.916C10.036 259.156 10.396 259.276 10.396 259.276C13.588 260.116 15.928 260.824 17.416 261.4C18.064 261.64 19 261.904 20.224 262.192C21.424 262.48 22.192 262.66 22.528 262.732C23.248 262.876 23.944 263.044 24.616 263.236C25.528 263.452 26.596 263.728 27.82 264.064L30.844 264.856C31.228 264.928 31.744 265.072 32.392 265.288C33.04 265.48 33.4 265.588 33.472 265.612C33.688 265.636 33.796 265.828 33.796 266.188ZM28.396 239.51C28.396 240.734 28.12 241.838 27.568 242.822C27.016 243.782 26.2 244.598 25.12 245.27C23.104 246.518 20.452 247.142 17.164 247.142C15.652 247.142 14.356 246.962 13.276 246.602C12.172 246.242 11.128 245.678 10.144 244.91C9.232 244.19 8.548 243.41 8.092 242.57C7.612 241.658 7.372 240.746 7.372 239.834C7.372 238.658 7.468 237.722 7.66 237.026C7.852 236.33 8.032 235.886 8.2 235.694C8.368 235.478 8.632 235.19 8.992 234.83L3.052 234.758C2.428 234.758 1.984 234.698 1.72 234.578C1.432 234.458 1.288 234.254 1.288 233.966L1.324 232.382C1.324 231.974 1.3 231.662 1.252 231.446C1.204 231.134 1.348 230.918 1.684 230.798C1.996 230.678 2.344 230.618 2.728 230.618L27.352 230.69C27.664 230.69 27.88 230.762 28 230.906C28.12 231.026 28.18 231.218 28.18 231.482C28.132 232.322 28.108 233.186 28.108 234.074C28.108 234.458 28.06 234.734 27.964 234.902C27.868 235.046 27.64 235.118 27.28 235.118H26.56C27.112 235.838 27.556 236.558 27.892 237.278C28.228 237.998 28.396 238.742 28.396 239.51ZM25.912 239.618C25.912 238.73 25.744 237.938 25.408 237.242C25.072 236.546 24.628 236.018 24.076 235.658C23.524 235.274 22.96 235.082 22.384 235.082C21.808 235.082 20.968 235.034 19.864 234.938L18.28 234.866C17.776 234.866 17.116 234.89 16.3 234.938C15.34 234.986 14.392 235.01 13.456 235.01C12.832 235.01 12.28 235.238 11.8 235.694C11.32 236.15 10.948 236.714 10.684 237.386C10.42 238.058 10.288 238.682 10.288 239.258C10.288 240.002 10.492 240.71 10.9 241.382C11.332 242.054 11.884 242.606 12.556 243.038C13.348 243.542 14.116 243.914 14.86 244.154C15.604 244.394 16.468 244.514 17.452 244.514C19.9 244.514 21.868 244.13 23.356 243.362C25.06 242.522 25.912 241.274 25.912 239.618ZM28.288 225.427C28.288 225.619 28.264 225.739 28.216 225.787C28.192 225.835 28.12 225.859 28 225.859C27.928 225.859 27.82 225.859 27.676 225.859C27.508 225.835 27.292 225.823 27.028 225.823L23.104 225.787L16.84 225.715C16.168 225.715 14.728 225.667 12.52 225.571C10.048 225.475 8.692 225.439 8.452 225.463L7.84 225.499C7.576 225.499 7.384 225.463 7.264 225.391C7.12 225.319 7.048 225.187 7.048 224.995L7.084 223.483C7.084 223.267 7.216 223.159 7.48 223.159C7.6 223.159 7.72 223.171 7.84 223.195C7.96 223.219 8.08 223.231 8.2 223.231C8.704 223.279 9.808 223.327 11.512 223.375C12.064 223.375 13.468 223.423 15.724 223.519C16.468 223.543 17.2 223.567 17.92 223.591C18.616 223.615 19.228 223.627 19.756 223.627C20.908 223.627 22.372 223.615 24.148 223.591C25.9 223.543 26.944 223.495 27.28 223.447C27.376 223.423 27.508 223.411 27.676 223.411C27.844 223.411 27.952 223.435 28 223.483C28.072 223.507 28.12 223.591 28.144 223.735C28.24 223.927 28.288 224.239 28.288 224.671C28.288 225.079 28.288 225.331 28.288 225.427ZM5.716 224.239C5.716 224.743 5.524 225.211 5.14 225.643C4.756 226.051 4.276 226.255 3.7 226.255C3.196 226.255 2.752 226.075 2.368 225.715C1.96 225.331 1.756 224.887 1.756 224.383C1.756 223.783 1.912 223.243 2.224 222.763C2.536 222.283 2.968 222.043 3.52 222.043C4.192 222.043 4.732 222.283 5.14 222.763C5.524 223.243 5.716 223.735 5.716 224.239ZM28.396 211.704C28.396 213.816 27.688 215.436 26.272 216.564C24.856 217.668 23.32 218.388 21.664 218.724C19.984 219.06 18.52 219.228 17.272 219.228C14.176 219.228 11.62 218.628 9.604 217.428C7.588 216.204 6.58 214.296 6.58 211.704C6.58 210.072 6.976 208.572 7.768 207.204L3.88 207.168L1.54 207.132C1.372 207.132 1.288 207.036 1.288 206.844C1.288 206.7 1.3 206.58 1.324 206.484C1.348 206.364 1.36 206.268 1.36 206.196L1.396 205.044C1.396 204.828 1.432 204.696 1.504 204.648C1.576 204.6 1.684 204.576 1.828 204.576C1.9 204.576 2.044 204.576 2.26 204.576C2.452 204.552 2.788 204.54 3.268 204.54L7.444 204.684C9.772 204.804 11.368 204.864 12.232 204.864H14.176C14.704 204.864 15.124 204.852 15.436 204.828L24.796 204.756L26.308 204.684L27.64 204.612C27.832 204.612 27.952 204.66 28 204.756C28.048 204.828 28.072 204.912 28.072 205.008C28.072 205.08 28.072 205.128 28.072 205.152C28.072 205.176 28.06 205.236 28.036 205.332C28.012 205.428 28 205.572 28 205.764C28 206.004 28.012 206.208 28.036 206.376C28.06 206.544 28.072 206.676 28.072 206.772C28.072 206.916 28.048 207.012 28 207.06C27.928 207.084 27.772 207.096 27.532 207.096H27.496C28.096 208.392 28.396 209.928 28.396 211.704ZM26.704 211.56C26.704 209.568 25.936 208.092 24.4 207.132H17.308C14.956 207.132 13.564 207.144 13.132 207.168C12.676 207.192 11.944 207.204 10.936 207.204H10.792C10.024 207.78 9.436 208.536 9.028 209.472C8.596 210.384 8.38 211.32 8.38 212.28C8.38 212.976 8.632 213.672 9.136 214.368C9.64 215.04 10.42 215.604 11.476 216.06C12.532 216.516 13.84 216.744 15.4 216.744C18.4 216.744 21.04 216.336 23.32 215.52C25.576 214.68 26.704 213.36 26.704 211.56ZM28 199.322C28 199.466 27.964 199.574 27.892 199.646C27.82 199.694 27.7 199.718 27.532 199.718L25.516 199.754C20.836 199.874 18.136 199.922 17.416 199.898H6.976C6.64 199.898 6.472 199.742 6.472 199.43V198.782L6.508 197.99C6.508 197.798 6.712 197.702 7.12 197.702L8.416 197.738L7.876 196.658C7.42 195.722 7.084 194.894 6.868 194.174C6.628 193.43 6.508 192.494 6.508 191.366C6.508 190.262 6.688 189.35 7.048 188.63C7.384 187.886 7.984 187.202 8.848 186.578C9.664 185.906 11.44 185.57 14.176 185.57L20.44 185.534L22.6 185.57C24.136 185.618 25.264 185.642 25.984 185.642C26.608 185.642 26.98 185.63 27.1 185.606C27.34 185.558 27.472 185.534 27.496 185.534C27.64 185.534 27.748 185.57 27.82 185.642C27.868 185.69 27.904 185.786 27.928 185.93C27.976 186.122 28 186.434 28 186.866C28 187.274 28 187.526 28 187.622C28 187.79 27.952 187.898 27.856 187.946C27.76 187.994 27.532 188.018 27.172 188.018L21.196 187.874L17.848 187.802L15.328 187.766C13.12 187.766 11.68 187.922 11.008 188.234C10.384 188.546 9.928 188.834 9.64 189.098C9.328 189.338 9.112 189.674 8.992 190.106C8.848 190.514 8.776 191.114 8.776 191.906C8.776 192.866 8.98 193.874 9.388 194.93C9.796 195.962 10.252 196.814 10.756 197.486C12.652 197.486 14.308 197.474 15.724 197.45H20.692C21.892 197.402 23.164 197.366 24.508 197.342C25.852 197.318 26.824 197.306 27.424 197.306C27.616 197.306 27.76 197.366 27.856 197.486C27.952 197.582 28 197.786 28 198.098V199.322ZM11.836 179.704C11.836 179.944 11.692 180.232 11.404 180.568C11.116 180.904 10.924 181.084 10.828 181.108C10.684 181.084 10.432 180.94 10.072 180.676C9.352 180.124 8.716 179.788 8.164 179.668C7.732 179.596 7.372 179.56 7.084 179.56C6.7 179.56 6.412 179.632 6.22 179.776C6.028 179.896 5.848 180.1 5.68 180.388C5.176 181.276 4.744 181.816 4.384 182.008C4.048 182.176 3.544 182.26 2.872 182.26C2.368 182.26 1.924 181.996 1.54 181.468C1.132 180.94 0.927999 180.364 0.927999 179.74C0.927999 178.156 1.828 177.256 3.628 177.04C3.748 177.04 4.096 177.04 4.672 177.04C5.248 177.04 5.836 177.076 6.436 177.148C7.012 177.22 7.552 177.34 8.056 177.508C9.376 178.012 10.588 178.648 11.692 179.416C11.788 179.488 11.836 179.584 11.836 179.704ZM28.144 170.228C28.144 171.188 28 171.908 27.712 172.388C27.424 172.868 27.028 173.18 26.524 173.324C25.996 173.468 25.288 173.54 24.4 173.54L22.168 173.504L17.92 173.324L14.752 173.216H9.496C9.496 174.368 9.304 175.028 8.92 175.196C8.728 175.268 8.524 175.304 8.308 175.304C8.068 175.304 7.84 175.292 7.624 175.268C7.408 175.22 7.204 175.196 7.012 175.196C7.036 174.764 7.048 174.104 7.048 173.216L6.904 173.18L5.536 173.144H3.988C3.412 173.168 3.028 173.132 2.836 173.036C2.62 172.916 2.512 172.748 2.512 172.532C2.512 172.412 2.524 172.316 2.548 172.244V172.172C2.548 172.124 2.548 172.04 2.548 171.92C2.524 171.8 2.536 171.692 2.584 171.596C2.656 171.116 2.86 170.876 3.196 170.876C3.268 170.876 3.544 170.9 4.024 170.948C4.864 171.068 5.872 171.152 7.048 171.2V167.744C7.048 167.552 7.216 167.396 7.552 167.276C7.864 167.156 8.2 167.096 8.56 167.096C9.04 167.096 9.316 167.204 9.388 167.42C9.532 167.876 9.604 168.428 9.604 169.076C9.604 169.652 9.556 170.372 9.46 171.236H17.992L19.432 171.272C20.368 171.344 21.34 171.38 22.348 171.38H23.068C23.836 171.38 24.412 171.212 24.796 170.876C25.156 170.54 25.336 170.096 25.336 169.544C25.336 169.016 25.324 168.56 25.3 168.176C25.252 167.792 25.228 167.516 25.228 167.348C25.228 167.084 25.696 166.952 26.632 166.952L27.208 166.808C27.376 166.736 27.472 166.748 27.496 166.844C27.784 167.612 27.964 168.188 28.036 168.572C28.108 168.932 28.144 169.484 28.144 170.228ZM28.036 153.66C28.036 153.876 28.024 153.996 28 154.02C28 154.164 27.94 154.236 27.82 154.236C27.748 154.236 27.676 154.224 27.604 154.2C27.508 154.176 27.424 154.152 27.352 154.128C27.184 154.104 26.872 154.128 26.416 154.2C25.768 154.272 25.42 154.308 25.372 154.308L22.78 154.344C18.676 154.344 16.384 154.296 15.904 154.2C15.52 154.176 14.512 154.164 12.88 154.164L9.28 154.2C7.048 154.2 5.884 154.212 5.788 154.236C5.62 154.26 5.2 154.272 4.528 154.272C3.928 154.296 3.328 154.296 2.728 154.272C2.104 154.248 1.708 154.212 1.54 154.164C1.348 154.164 1.252 154.056 1.252 153.84C1.252 153.744 1.276 153.648 1.324 153.552C1.348 153.432 1.36 153.324 1.36 153.228C1.36 152.988 1.372 152.64 1.396 152.184C1.396 151.704 1.384 151.308 1.36 150.996V150.816C1.36 150.624 1.408 150.516 1.504 150.492C1.576 150.444 1.672 150.42 1.792 150.42C1.888 150.42 1.948 150.42 1.972 150.42C2.188 150.396 2.44 150.396 2.728 150.42C3.016 150.42 3.364 150.408 3.772 150.384L4.996 150.348H8.056C10.744 150.348 12.28 150.372 12.664 150.42L13.744 150.456C13.936 150.456 14.116 150.444 14.284 150.42C14.428 150.396 14.584 150.384 14.752 150.384L16.48 150.348L15.976 149.844L15.076 148.98C14.596 148.5 14.056 148.008 13.456 147.504C12.832 146.952 12.364 146.52 12.052 146.208C11.716 145.992 10.696 145.032 8.992 143.328C8.944 143.28 8.62 142.968 8.02 142.392C7.396 141.792 7.072 141.348 7.048 141.06V139.836C7.072 139.692 7.144 139.62 7.264 139.62C7.36 139.62 7.456 139.668 7.552 139.764C7.6 139.812 7.768 139.956 8.056 140.196C8.344 140.436 8.584 140.676 8.776 140.916C9.232 141.372 9.928 142.044 10.864 142.932C11.8 143.796 12.376 144.288 12.592 144.408L14.644 146.28L16.336 147.9L16.948 147.36L17.56 146.82C18.352 146.148 18.952 145.608 19.36 145.2C19.528 145.008 20.368 144.264 21.88 142.968C23.104 141.936 23.788 141.336 23.932 141.168C24.148 140.88 25.024 140.088 26.56 138.792L27.388 138.072C27.532 138.024 27.616 138 27.64 138C27.784 138 27.856 138.168 27.856 138.504L27.964 142.428C27.964 142.668 27.928 142.872 27.856 143.04C27.784 143.184 27.64 143.364 27.424 143.58C27.352 143.652 26.512 144.348 24.904 145.668L22.636 147.54C22.204 147.972 21.604 148.512 20.836 149.16L19.612 150.312C19.756 150.288 20.152 150.276 20.8 150.276C21.424 150.276 21.808 150.288 21.952 150.312H23.86H25.948C26.5 150.312 26.992 150.276 27.424 150.204C27.472 150.18 27.544 150.168 27.64 150.168C27.76 150.168 27.844 150.204 27.892 150.276C27.916 150.348 27.928 150.444 27.928 150.564V151.788L27.964 152.508C28.012 153.036 28.036 153.42 28.036 153.66ZM28.288 136.13C28.288 136.322 28.264 136.442 28.216 136.49C28.192 136.538 28.12 136.562 28 136.562C27.928 136.562 27.82 136.562 27.676 136.562C27.508 136.538 27.292 136.526 27.028 136.526L23.104 136.49L16.84 136.418C16.168 136.418 14.728 136.37 12.52 136.274C10.048 136.178 8.692 136.142 8.452 136.166L7.84 136.202C7.576 136.202 7.384 136.166 7.264 136.094C7.12 136.022 7.048 135.89 7.048 135.698L7.084 134.186C7.084 133.97 7.216 133.862 7.48 133.862C7.6 133.862 7.72 133.874 7.84 133.898C7.96 133.922 8.08 133.934 8.2 133.934C8.704 133.982 9.808 134.03 11.512 134.078C12.064 134.078 13.468 134.126 15.724 134.222C16.468 134.246 17.2 134.27 17.92 134.294C18.616 134.318 19.228 134.33 19.756 134.33C20.908 134.33 22.372 134.318 24.148 134.294C25.9 134.246 26.944 134.198 27.28 134.15C27.376 134.126 27.508 134.114 27.676 134.114C27.844 134.114 27.952 134.138 28 134.186C28.072 134.21 28.12 134.294 28.144 134.438C28.24 134.63 28.288 134.942 28.288 135.374C28.288 135.782 28.288 136.034 28.288 136.13ZM5.716 134.942C5.716 135.446 5.524 135.914 5.14 136.346C4.756 136.754 4.276 136.958 3.7 136.958C3.196 136.958 2.752 136.778 2.368 136.418C1.96 136.034 1.756 135.59 1.756 135.086C1.756 134.486 1.912 133.946 2.224 133.466C2.536 132.986 2.968 132.746 3.52 132.746C4.192 132.746 4.732 132.986 5.14 133.466C5.524 133.946 5.716 134.438 5.716 134.942ZM28.144 125.395C28.144 126.547 28.012 127.411 27.748 127.987C27.46 128.539 27.064 128.911 26.56 129.103C26.032 129.271 25.336 129.355 24.472 129.355L22.168 129.319C21.76 129.295 21.076 129.283 20.116 129.283L15.904 129.319C15.544 129.343 15.16 129.355 14.752 129.355H13.672H9.208H7.768C6.904 129.355 6.232 129.343 5.752 129.319L4.384 129.283H2.836C2.26 129.307 1.876 129.271 1.684 129.175C1.468 129.055 1.36 128.887 1.36 128.671C1.36 128.551 1.372 128.455 1.396 128.383C1.42 128.191 1.432 127.987 1.432 127.771C1.408 127.531 1.396 127.315 1.396 127.123V126.223C1.396 125.599 1.408 125.167 1.432 124.927C1.456 124.663 1.516 124.483 1.612 124.387C1.708 124.267 1.852 124.207 2.044 124.207C2.116 124.207 2.392 124.231 2.872 124.279C4.624 124.495 6.808 124.591 9.424 124.567C9.856 124.591 10.228 124.603 10.54 124.603C10.852 124.579 11.116 124.567 11.332 124.567H12.304C12.904 124.543 13.744 124.531 14.824 124.531L17.992 124.567L20.296 124.495C20.872 124.471 21.532 124.447 22.276 124.423C23.02 124.399 23.728 124.387 24.4 124.387H25.12C25.432 124.387 25.588 124.123 25.588 123.595C25.588 123.355 25.552 123.151 25.48 122.983C25.408 122.791 25.372 122.659 25.372 122.587C25.372 122.395 25.54 122.239 25.876 122.119C26.236 122.023 26.536 121.903 26.776 121.759C26.8 121.735 26.836 121.723 26.884 121.723C26.98 121.723 27.088 121.783 27.208 121.903C27.64 122.383 27.904 122.863 28 123.343C28.096 123.823 28.144 124.507 28.144 125.395ZM28.144 116.193C28.144 117.153 28 117.873 27.712 118.353C27.424 118.833 27.028 119.145 26.524 119.289C25.996 119.433 25.288 119.505 24.4 119.505L22.168 119.469L17.92 119.289L14.752 119.181H7.768C6.904 119.181 6.232 119.169 5.752 119.145L4.384 119.109H2.836C2.26 119.133 1.876 119.097 1.684 119.001C1.468 118.881 1.36 118.713 1.36 118.497C1.36 118.377 1.372 118.281 1.396 118.209V118.137C1.396 118.089 1.396 118.005 1.396 117.885C1.372 117.765 1.384 117.657 1.432 117.561C1.504 117.081 1.708 116.841 2.044 116.841C2.116 116.841 2.392 116.865 2.872 116.913C4.624 117.129 6.808 117.225 9.424 117.201H17.992L19.612 117.273C20.86 117.321 21.832 117.345 22.528 117.345H23.248C24.016 117.345 24.592 117.177 24.976 116.841C25.336 116.505 25.516 116.061 25.516 115.509C25.516 115.245 25.504 115.017 25.48 114.825C25.432 114.633 25.408 114.489 25.408 114.393C25.408 114.129 25.588 113.997 25.948 113.997L27.424 113.781C27.736 114.117 27.928 114.453 28 114.789C28.096 115.125 28.144 115.593 28.144 116.193ZM28.144 98.6496C28.144 99.6096 28 100.33 27.712 100.81C27.424 101.29 27.028 101.602 26.524 101.746C25.996 101.89 25.288 101.962 24.4 101.962L22.168 101.926L17.92 101.746L14.752 101.638H9.496C9.496 102.79 9.304 103.45 8.92 103.618C8.728 103.69 8.524 103.726 8.308 103.726C8.068 103.726 7.84 103.714 7.624 103.69C7.408 103.642 7.204 103.618 7.012 103.618C7.036 103.186 7.048 102.526 7.048 101.638L6.904 101.602L5.536 101.566H3.988C3.412 101.59 3.028 101.554 2.836 101.458C2.62 101.338 2.512 101.17 2.512 100.954C2.512 100.834 2.524 100.738 2.548 100.666V100.594C2.548 100.546 2.548 100.462 2.548 100.342C2.524 100.222 2.536 100.114 2.584 100.018C2.656 99.5376 2.86 99.2976 3.196 99.2976C3.268 99.2976 3.544 99.3216 4.024 99.3696C4.864 99.4896 5.872 99.5736 7.048 99.6216V96.1656C7.048 95.9736 7.216 95.8176 7.552 95.6976C7.864 95.5776 8.2 95.5176 8.56 95.5176C9.04 95.5176 9.316 95.6256 9.388 95.8416C9.532 96.2976 9.604 96.8496 9.604 97.4976C9.604 98.0736 9.556 98.7936 9.46 99.6576H17.992L19.432 99.6936C20.368 99.7656 21.34 99.8016 22.348 99.8016H23.068C23.836 99.8016 24.412 99.6336 24.796 99.2976C25.156 98.9616 25.336 98.5176 25.336 97.9656C25.336 97.4376 25.324 96.9816 25.3 96.5976C25.252 96.2136 25.228 95.9376 25.228 95.7696C25.228 95.5056 25.696 95.3736 26.632 95.3736L27.208 95.2296C27.376 95.1576 27.472 95.1696 27.496 95.2656C27.784 96.0336 27.964 96.6096 28.036 96.9936C28.108 97.3536 28.144 97.9056 28.144 98.6496ZM28.072 86.537C28.072 86.681 28.048 87.089 28 87.761C27.928 88.409 27.892 88.985 27.892 89.489C27.892 89.873 27.916 90.353 27.964 90.929L28 91.685C28 92.045 27.856 92.225 27.568 92.225L26.884 92.189L24.184 92.261C23.176 92.285 21.916 92.321 20.404 92.369C18.892 92.393 17.98 92.393 17.668 92.369C17.476 92.345 16.792 92.333 15.616 92.333H14.284C13.54 92.357 12.304 92.345 10.576 92.297L7.516 92.261C6.724 92.261 5.728 92.285 4.528 92.333C3.976 92.381 3.28 92.405 2.44 92.405L1.828 92.441C1.564 92.441 1.42 92.381 1.396 92.261C1.372 92.117 1.372 91.961 1.396 91.793C1.396 91.601 1.396 91.409 1.396 91.217C1.42 90.929 1.432 90.437 1.432 89.741C1.432 88.973 1.42 88.409 1.396 88.049C1.396 87.809 1.396 87.569 1.396 87.329C1.372 87.065 1.372 86.849 1.396 86.681C1.396 86.609 1.444 86.549 1.54 86.501C1.612 86.429 1.672 86.393 1.72 86.393L2.332 86.465L4.276 86.357L7.156 86.393L7.444 86.321C6.796 85.073 6.472 83.825 6.472 82.577C6.472 81.545 6.616 80.717 6.904 80.093C7.192 79.445 7.756 78.857 8.596 78.329C9.484 77.777 10.336 77.393 11.152 77.177C11.728 77.057 12.448 76.997 13.312 76.997L14.644 76.925C16.66 76.781 18.112 76.709 19 76.709C19.552 76.709 20.212 76.733 20.98 76.781L22.132 76.817C22.3 76.817 22.744 76.829 23.464 76.853C24.16 76.853 25.348 76.853 27.028 76.853C27.148 76.853 27.256 76.841 27.352 76.817C27.448 76.793 27.556 76.781 27.676 76.781C27.844 76.781 27.94 76.901 27.964 77.141C27.988 77.381 28 77.945 28 78.833C28 80.249 27.988 81.233 27.964 81.785C27.964 81.953 27.976 82.145 28 82.361C28.048 82.577 28.072 82.757 28.072 82.901C28.048 83.069 27.952 83.153 27.784 83.153C26.968 83.249 25.156 83.297 22.348 83.297L19.756 83.261C18.508 83.213 17.56 83.189 16.912 83.189C15.76 83.189 14.896 83.297 14.32 83.513C13.72 83.705 13.42 84.113 13.42 84.737C13.42 85.025 13.456 85.265 13.528 85.457C13.576 85.649 13.672 85.853 13.816 86.069L20.872 86.033C22.816 85.961 24.232 85.925 25.12 85.925C26.08 85.925 26.752 85.949 27.136 85.997H27.244C27.34 85.997 27.448 85.985 27.568 85.961C27.688 85.937 27.772 85.937 27.82 85.961C27.988 85.961 28.072 86.153 28.072 86.537ZM28.792 65.0102C28.792 68.6102 27.58 71.0102 25.156 72.2102C22.708 73.4102 20.092 74.0102 17.308 74.0102C14.62 74.0102 12.472 73.6022 10.864 72.7862C9.232 71.9702 8.092 70.9862 7.444 69.8342C6.796 68.6582 6.472 67.4822 6.472 66.3062C6.472 64.0982 7.108 62.4422 8.38 61.3382C9.652 60.2102 11.14 59.4902 12.844 59.1782C14.524 58.8422 16.348 58.6742 18.316 58.6742C18.484 58.6742 18.592 58.7942 18.64 59.0342C18.64 59.8262 18.772 61.6502 19.036 64.5062C19.084 64.9622 19.144 65.5142 19.216 66.1622C19.264 66.8102 19.312 67.5302 19.36 68.3222C21.688 68.1062 22.852 66.8462 22.852 64.5422C22.852 63.7742 22.78 63.1862 22.636 62.7782C22.492 62.3462 22.192 61.6622 21.736 60.7262C21.736 60.5582 21.832 60.4142 22.024 60.2942C22.216 60.1502 22.612 59.9582 23.212 59.7182C23.332 59.6462 23.56 59.5622 23.896 59.4662C24.232 59.3462 24.484 59.2382 24.652 59.1422C25.804 58.6862 26.404 58.4702 26.452 58.4942C26.548 58.5422 26.68 58.6742 26.848 58.8902C27.352 59.3942 27.796 60.2102 28.18 61.3382C28.588 62.4422 28.792 63.6662 28.792 65.0102ZM16.912 64.1462C14.176 64.3382 12.808 64.9982 12.808 66.1262C12.808 66.7982 13.204 67.3142 13.996 67.6742C14.764 68.0342 15.856 68.2502 17.272 68.3222L16.912 64.1462ZM28.432 38.6154C28.432 41.2794 27.412 43.3194 25.372 44.7354C23.308 46.1514 20.62 46.8594 17.308 46.8594C15.22 46.8594 13.372 46.5234 11.764 45.8514C10.156 45.1794 8.908 44.2434 8.02 43.0434C7.132 41.8194 6.688 40.4154 6.688 38.8314C6.688 37.2954 6.964 36.0474 7.516 35.0874C8.068 34.1274 8.596 33.4674 9.1 33.1074C9.124 33.0834 9.208 33.0234 9.352 32.9274C9.472 32.8074 9.592 32.7474 9.712 32.7474C9.832 32.7474 10 32.8674 10.216 33.1074C10.432 33.3234 10.768 33.6114 11.224 33.9714C11.608 34.2114 11.8 34.4034 11.8 34.5474C11.8 34.6194 11.752 34.7034 11.656 34.7994C11.536 34.8954 11.452 34.9674 11.404 35.0154C10.948 35.4474 10.516 35.9874 10.108 36.6354C9.7 37.2594 9.496 37.8834 9.496 38.5074C9.496 39.8274 9.712 40.9314 10.144 41.8194C10.552 42.7074 11.38 43.4154 12.628 43.9434C13.852 44.4714 15.616 44.7354 17.92 44.7354C21.496 44.7354 23.824 44.1474 24.904 42.9714C25.96 41.7714 26.488 40.4994 26.488 39.1554C26.488 38.5314 26.224 37.7874 25.696 36.9234C25.144 36.0354 24.244 35.2554 22.996 34.5834C22.732 34.3674 22.6 34.1994 22.6 34.0794C22.6 33.9594 22.648 33.8394 22.744 33.7194L23.176 33.1794C23.368 32.9634 23.62 32.7354 23.932 32.4954C24.244 32.2314 24.472 32.0994 24.616 32.0994C24.712 32.0994 24.82 32.1354 24.94 32.2074C25.708 32.6874 26.488 33.4314 27.28 34.4394C28.048 35.4474 28.432 36.8394 28.432 38.6154ZM28.396 24.4404C28.396 26.1924 28.048 27.5964 27.352 28.6524C26.656 29.7084 25.42 30.2364 23.644 30.2364C22.492 30.1164 21.64 29.2644 21.088 27.6804C20.536 26.0964 20.26 24.3204 20.26 22.3524C20.26 21.7284 20.212 20.9844 20.116 20.1204C20.02 19.2564 19.972 18.4644 19.972 17.7444C17.38 17.8404 15.352 18.0084 13.888 18.2484C12.4 18.4644 11.284 18.8484 10.54 19.4004C9.796 19.9284 9.424 20.6844 9.424 21.6684C9.424 22.3884 9.592 23.0724 9.928 23.7204C10.264 24.3684 10.792 25.1724 11.512 26.1324C12.088 26.9244 12.376 27.3204 12.376 27.3204C12.376 27.3444 12.424 27.4284 12.52 27.5724C12.592 27.6924 12.616 27.8124 12.592 27.9324C12.544 28.1484 12.436 28.2564 12.268 28.2564C12.124 28.3524 11.8 28.4724 11.296 28.6164C10.792 28.7364 10.432 28.7964 10.216 28.7964C10.072 28.7964 9.904 28.6524 9.712 28.3644C8.8 27.1404 8.128 26.1084 7.696 25.2684C7.24 24.4044 6.952 23.6724 6.832 23.0724C6.712 22.4484 6.652 21.7284 6.652 20.9124C6.652 18.5124 7.432 16.9044 8.992 16.0884C10.528 15.2484 12.58 14.8284 15.148 14.8284C15.82 14.8284 16.732 14.8524 17.884 14.9004C18.58 14.9004 19.6 14.9484 20.944 15.0444L21.808 15.0804L23.932 15.0444C24.892 14.9964 25.624 14.9724 26.128 14.9724L27.208 15.0084C27.76 15.0564 28.036 15.2724 28.036 15.6564L28 15.9444V17.4204C28 17.5164 27.964 17.6124 27.892 17.7084C27.796 17.7804 27.688 17.8164 27.568 17.8164H27.28C27.688 19.2564 27.976 20.4084 28.144 21.2724C28.312 22.1364 28.396 23.1924 28.396 24.4404ZM26.344 24.4044C26.344 21.8364 25.912 19.6404 25.048 17.8164L21.7 17.7084C21.604 18.8364 21.556 19.8084 21.556 20.6244L21.592 22.7484C21.592 23.9004 21.82 24.9324 22.276 25.8444C22.708 26.7564 23.32 27.2484 24.112 27.3204C24.976 27.3204 25.564 27.1164 25.876 26.7084C26.188 26.3004 26.344 25.5324 26.344 24.4044ZM28.144 5.78256C28.144 6.93456 28.012 7.79856 27.748 8.37456C27.46 8.92656 27.064 9.29856 26.56 9.49056C26.032 9.65856 25.336 9.74256 24.472 9.74256L22.168 9.70656C21.76 9.68256 21.076 9.67056 20.116 9.67056L15.904 9.70656C15.544 9.73056 15.16 9.74256 14.752 9.74256C14.296 9.76656 13.792 9.77856 13.24 9.77856C12.664 9.75456 12.136 9.74256 11.656 9.74256H9.712H8.596V11.1106C8.596 11.2306 8.572 11.3146 8.524 11.3626C8.476 11.4106 8.44 11.4346 8.416 11.4346C8.224 11.4586 7.996 11.4706 7.732 11.4706C7.54 11.4706 7.324 11.4466 7.084 11.3986V9.74256L6.832 9.70656L5.464 9.67056H3.916C3.34 9.69456 2.956 9.65856 2.764 9.56256C2.548 9.44256 2.44 9.27456 2.44 9.05856C2.44 8.93856 2.452 8.84256 2.476 8.77056C2.5 8.57856 2.512 8.37456 2.512 8.15856C2.488 7.91856 2.476 7.70256 2.476 7.51056V6.61056C2.476 5.98656 2.488 5.55456 2.512 5.31456C2.536 5.05056 2.596 4.87056 2.692 4.77456C2.788 4.65456 2.932 4.59456 3.124 4.59456C3.196 4.59456 3.472 4.61856 3.952 4.66656C4.096 4.69056 4.432 4.73856 4.96 4.81056C5.464 4.85856 6.148 4.90656 7.012 4.95456L7.048 2.21856V2.03856C7.048 1.70256 7.12 1.52256 7.264 1.49856L7.948 1.42656C8.116 1.40256 8.164 1.39056 8.092 1.39056C8.02 1.36656 8.044 1.35456 8.164 1.35456C8.26 1.35456 8.344 1.39056 8.416 1.46256C8.488 1.51056 8.524 1.57056 8.524 1.64256L8.56 2.47056C8.632 3.26256 8.668 4.09056 8.668 4.95456H8.812H9.928H12.304C12.904 4.93056 13.744 4.91856 14.824 4.91856L17.992 4.95456L19.432 4.88256C21.16 4.81056 22.036 4.77456 22.06 4.77456H22.78C23.26 4.77456 23.608 4.71456 23.824 4.59456C24.016 4.45056 24.112 4.24656 24.112 3.98256C24.112 3.38256 24.1 2.96256 24.076 2.72256C24.028 2.48256 24.004 2.27856 24.004 2.11056C24.004 2.01456 24.112 1.93056 24.328 1.85856C24.544 1.78656 24.712 1.73856 24.832 1.71456L25.876 1.42656C26.236 1.33056 26.536 1.21056 26.776 1.06656C26.8 1.04256 26.836 1.03056 26.884 1.03056C26.98 1.03056 27.088 1.09056 27.208 1.21056C27.616 1.85856 27.88 2.50656 28 3.15456C28.096 3.80256 28.144 4.67856 28.144 5.78256Z" fill="#8B8ECD"/>
<path d="M33.22 391L33.22 0.130554H35.02L35.02 391H33.22Z" fill="#8B8ECD"/>
</svg>
