<svg width="176" height="176" viewBox="0 0 176 176" fill="none" xmlns="http://www.w3.org/2000/svg">
<path d="M139.333 58.6666H132V36.6666C132 30.8319 129.682 25.2361 125.556 21.1103C121.43 16.9845 115.835 14.6666 110 14.6666H36.6665C30.8317 14.6666 25.236 16.9845 21.1102 21.1103C16.9844 25.2361 14.6665 30.8319 14.6665 36.6666V124.667C14.6737 126.114 15.1093 127.528 15.9185 128.728C16.7276 129.929 17.874 130.863 19.2132 131.413C20.0835 131.824 21.0379 132.025 21.9998 132C22.965 132.006 23.9217 131.821 24.8152 131.456C25.7086 131.091 26.5213 130.553 27.2065 129.873L47.8132 109.193H58.6665V119.753C58.6665 125.588 60.9843 131.184 65.1101 135.31C69.2359 139.435 74.8317 141.753 80.6665 141.753H131.413L148.793 159.207C149.478 159.886 150.291 160.424 151.185 160.789C152.078 161.154 153.035 161.339 154 161.333C154.962 161.358 155.916 161.157 156.786 160.747C158.126 160.196 159.272 159.262 160.081 158.062C160.89 156.861 161.326 155.448 161.333 154V80.6666C161.333 74.8319 159.015 69.2361 154.89 65.1103C150.764 60.9845 145.168 58.6666 139.333 58.6666ZM58.6665 80.6666V94.5266H44.8065C43.8414 94.5211 42.8847 94.706 41.9912 95.071C41.0977 95.4359 40.2851 95.9736 39.5998 96.6533L29.3332 106.993V36.6666C29.3332 34.7217 30.1058 32.8564 31.4811 31.4812C32.8563 30.1059 34.7216 29.3333 36.6665 29.3333H110C111.945 29.3333 113.81 30.1059 115.185 31.4812C116.561 32.8564 117.333 34.7217 117.333 36.6666V58.6666H80.6665C74.8317 58.6666 69.2359 60.9845 65.1101 65.1103C60.9843 69.2361 58.6665 74.8319 58.6665 80.6666ZM146.666 136.327L139.333 128.993C138.654 128.3 137.844 127.749 136.95 127.371C136.057 126.994 135.097 126.797 134.127 126.793H80.6665C78.7216 126.793 76.8563 126.021 75.4811 124.645C74.1058 123.27 73.3332 121.405 73.3332 119.46V80.6666C73.3332 78.7217 74.1058 76.8564 75.4811 75.4812C76.8563 74.1059 78.7216 73.3333 80.6665 73.3333H139.333C141.278 73.3333 143.143 74.1059 144.519 75.4812C145.894 76.8564 146.666 78.7217 146.666 80.6666V136.327Z" fill="#8B8ECD"/>
</svg>
