<svg width="69" height="56" viewBox="0 0 69 56" fill="none" xmlns="http://www.w3.org/2000/svg">
<path d="M4 10.1C4 6.73106 6.73106 4 10.1 4H58.9C62.269 4 65 6.73106 65 10.1V46.7C65 50.069 62.269 52.8 58.9 52.8H10.1C6.73106 52.8 4 50.069 4 46.7V10.1Z" stroke="#8B8ECD" stroke-width="6.1" stroke-linecap="round" stroke-linejoin="round"/>
<path d="M7.0498 7.05002L26.3946 24.2453C31.017 28.3543 37.9826 28.3543 42.6052 24.2453L61.9498 7.05002" stroke="#8B8ECD" stroke-width="6.1" stroke-linejoin="round"/>
<path d="M27.3201 17.2265C25.31 17.2265 23.5192 18.067 22.167 19.3827C20.8513 20.6984 20.0107 22.4892 20.0107 24.5358C20.0107 26.5459 20.8513 28.3367 22.167 29.6889L34.6295 42.1514L47.0919 29.6889C48.4076 28.3732 49.2482 26.5824 49.2482 24.5358C49.2482 22.5258 48.4076 20.735 47.0919 19.3827C45.7762 18.067 43.9854 17.2265 41.9388 17.2265C39.9287 17.2265 38.1379 18.067 36.7857 19.3827C35.47 20.6984 34.6295 22.4892 34.6295 24.5358C34.6295 22.5258 33.7889 20.735 32.4732 19.3827C31.1575 18.067 29.3667 17.2265 27.3201 17.2265Z" fill="#366595"/>
</svg>
