<svg width="76" height="66" viewBox="0 0 76 66" fill="none" xmlns="http://www.w3.org/2000/svg">
<path d="M57.6531 0.0280049C55.3858 0.219606 52.9801 0.938112 50.6011 2.12498C48.4509 3.20008 46.1783 4.74885 44.1398 6.53181C42.0322 8.37332 40.6058 9.86887 38.8282 12.0989C38.4237 12.6098 38.0937 13.009 38.0937 12.993C38.0937 12.9451 38.7856 11.2261 39.3179 9.95403C40.031 8.25091 40.4621 7.28758 41.649 4.73821C41.7821 4.44549 42.128 3.74827 42.4154 3.18943C43.0062 2.0345 43.0434 1.88015 42.7827 1.61936C42.5751 1.41712 42.3569 1.41179 42.144 1.60872C42.0588 1.69387 41.5372 2.42835 40.9891 3.24798C38.0831 7.58562 35.9276 10.4756 31.9785 15.3295C29.9081 17.8682 23.9418 25.0906 22.3452 26.9853C18.1352 31.9776 15.3783 34.8622 12.2541 37.5287C9.36947 39.9929 6.9372 41.4938 5.0744 41.9675C3.89818 42.2655 2.73793 41.9408 1.98217 41.1053C1.14657 40.1792 0.779334 38.8699 1.02416 37.683C1.42333 35.7617 2.98275 34.1384 4.8828 33.6594C5.27133 33.5583 5.43099 33.5476 6.02709 33.5742C7.07025 33.6168 7.67699 33.8244 8.51791 34.4098C9.09271 34.809 9.47059 34.825 9.62494 34.4577C9.70477 34.2555 9.60897 34.0107 9.40673 33.9042C9.32157 33.8616 9.03417 33.6754 8.75741 33.4891C8.01229 32.9835 7.28314 32.728 6.22401 32.6003C5.30858 32.4885 4.34525 32.6961 3.31805 33.2283C1.81185 34.0054 0.67821 35.3785 0.161951 37.0497C0.028894 37.4861 0.0182495 37.5926 0.0182495 38.4282C0.0182495 39.2584 0.028894 39.3702 0.161951 39.8013C0.51322 40.9456 1.2743 41.9994 2.09393 42.4784C2.79115 42.8882 3.74384 43.1224 4.45702 43.0638C7.8952 42.7658 13.606 38.3909 20.1258 31.0675C21.4989 29.524 23.9951 26.5648 27.0287 22.8871C31.9359 16.9368 32.7289 15.9735 34.3948 13.8925C35.869 12.051 37.3327 10.135 38.6419 8.33606C39.0145 7.83045 39.3179 7.42595 39.3179 7.44192C39.3179 7.45257 39.2061 7.71336 39.073 8.01673C38.6952 8.86829 37.503 11.7636 37.1198 12.7748C36.6141 14.1001 36.2842 15.1273 36.2842 15.3827C36.2842 15.7766 36.6727 16.0267 37.0506 15.8671C37.2528 15.7819 37.4391 15.5637 38.3599 14.3183C39.8501 12.3065 41.319 10.5767 42.7135 9.19295C47.5514 4.40291 52.416 1.66726 57.2007 1.06585C58.1534 0.943435 60.0853 0.980691 60.9263 1.14036C64.7317 1.84822 67.9517 3.90261 70.6288 7.33015C72.6193 9.87952 73.7795 12.7642 74.1893 16.1811C74.2958 17.0805 74.2798 19.6672 74.1627 20.5986C73.5507 25.3673 71.4803 29.7795 67.8718 34.0107C67.0682 34.9474 65.232 36.7942 64.2527 37.6511C59.2018 42.0633 53.1717 45.4163 47.9665 46.7202C46.0452 47.2046 44.5975 47.3749 42.9104 47.327C40.9837 47.2684 39.6798 46.9704 38.2268 46.2519C35.7839 45.0384 34.0382 42.8084 33.3356 40.0035C33.0748 38.9604 33.011 38.4122 33.011 37.0337C33.011 36.2407 33.0323 35.7244 33.0642 35.6978C33.1334 35.6286 34.4107 35.8469 35.2091 36.0651C37.8489 36.7676 40.8241 38.5665 42.3196 40.3655C42.8199 40.9669 43.0434 41.3448 43.2244 41.9142C43.3787 42.3826 43.4054 42.4252 43.581 42.5157C43.7726 42.6061 43.7832 42.6061 44.0866 42.4944C45.0872 42.1271 46.6732 40.4346 48.3764 37.9225C51.6176 33.1431 53.5815 27.757 53.5815 23.6589C53.5815 21.8653 53.2409 20.5347 52.5064 19.4277C51.0907 17.3041 48.2752 16.857 44.8477 18.2089C42.7773 19.0232 40.7176 20.4176 38.7643 22.3283C35.4379 25.5855 33.1068 29.7635 32.3191 33.8776C32.2765 34.1278 32.2233 34.3832 32.2073 34.4471C32.186 34.5695 32.1701 34.5695 31.3983 34.5695C28.8703 34.5695 26.4646 35.1443 23.9472 36.3578C20.3387 38.0875 17.0814 40.9882 14.894 44.421C12.302 48.4926 11.2429 53.5274 12.1743 57.3488C12.9567 60.5422 14.8674 63.049 17.5604 64.4061C19.3913 65.3269 21.5415 65.7793 23.2978 65.6036C26.0761 65.3269 28.6041 64.0602 30.6958 61.894C32.3563 60.1696 33.7508 58.062 34.5438 56.0715C35.0068 54.9165 35.3634 53.4582 35.2942 53.0058C35.2304 52.5694 34.9536 52.282 34.597 52.282C34.2404 52.282 34.0329 52.6812 34.2404 52.9792C34.3575 53.1442 34.3096 53.6019 34.0967 54.3258C33.5379 56.2365 32.7555 57.7639 31.4516 59.5043C29.3652 62.2825 27.0394 63.8846 24.2186 64.4913C23.713 64.5977 23.5001 64.6137 22.4729 64.6137C21.4563 64.6137 21.2275 64.5977 20.7432 64.4913C19.5031 64.2199 18.0661 63.645 17.1506 63.0436C14.9046 61.5694 13.4516 59.2169 12.946 56.2311C12.813 55.4541 12.7864 53.8574 12.8875 52.9367C13.4995 47.4441 16.6237 42.372 21.5149 38.9125C23.8141 37.2839 26.4912 36.1502 28.998 35.7404C29.8389 35.602 31.2759 35.5009 31.7123 35.5488L32.053 35.5861V37.0869C32.053 38.6889 32.0955 39.0828 32.3776 40.2164C33.3729 44.2294 36.3001 47.1194 40.2546 48.0029C42.1546 48.4287 44.3953 48.4287 46.7158 48.0029C52.9163 46.8693 60.6761 42.5369 66.3443 37.0497C71.2142 32.3288 74.2958 26.7564 75.0516 21.2905C75.2591 19.8002 75.3177 17.8416 75.1953 16.4738C74.9824 14.132 74.3384 11.7902 73.375 9.86887C72.3266 7.7719 70.7139 5.65896 69.0321 4.15808C66.4561 1.87483 63.6406 0.517653 60.6069 0.102517C59.9044 0.00671586 58.3503 -0.03054 57.6531 0.0280049ZM48.9512 18.443C50.2338 18.5761 51.0854 19.0604 51.7241 20.0291C53.0387 22.0196 52.879 25.7558 51.2823 30.1786C50.0369 33.6328 47.8016 37.4595 45.497 40.0727C45.0446 40.589 44.2037 41.382 44.1132 41.382C44.0919 41.382 44.044 41.2915 44.0068 41.1798C43.8205 40.6582 43.0275 39.5991 42.3196 38.9338C40.4568 37.1881 37.8223 35.7244 35.3847 35.0964C35.0441 35.0059 34.4214 34.8782 34.0009 34.8037C33.5751 34.7345 33.2185 34.66 33.2079 34.6493C33.1227 34.5695 33.5858 32.6588 33.9317 31.6423C35.4699 27.1237 38.8069 22.8765 42.8199 20.3431C44.4805 19.2946 46.3858 18.5761 47.8814 18.443C48.1315 18.4218 48.3551 18.4005 48.371 18.3951C48.3923 18.3951 48.6531 18.4164 48.9512 18.443Z" fill="#366595"/>
<path d="M60.3142 47.8752C60.2291 47.9284 60.0641 48.0934 59.9523 48.2424C59.7447 48.5086 58.8612 49.3229 58.2119 49.8444C57.4455 50.4618 56.743 50.8557 56.413 50.8557C56.2586 50.8557 56.2267 50.8291 56.1575 50.6588C56.0191 50.3394 55.9233 49.7061 55.9233 49.1526C55.9233 48.6682 55.9127 48.615 55.7903 48.4713C55.6359 48.285 55.4177 48.2212 55.2208 48.2957C55.141 48.3223 54.944 48.5245 54.7737 48.7374C54.3426 49.2803 53.3101 50.4725 52.7353 51.0899C51.8997 51.9946 51.0056 52.7291 50.5479 52.8835C50.2711 52.9846 50.2498 52.9154 50.3562 52.2022C50.5053 51.2549 50.5106 51.1324 50.4414 50.9568C50.3562 50.7599 50.1114 50.6268 49.9145 50.6694C49.7176 50.712 49.6271 50.8131 48.7862 51.9467C47.7483 53.3412 47.1416 53.9479 46.5615 54.1768C46.3326 54.2673 46.3273 54.2673 46.1996 54.1448C46.125 54.0757 45.9334 53.7616 45.7685 53.437C45.2203 52.3672 44.7892 52.1224 43.9536 52.4045C43.3202 52.6174 42.4314 53.3199 41.7395 54.1502C41.5692 54.3577 41.4202 54.5174 41.4095 54.5068C41.3989 54.4961 41.4468 54.2513 41.5266 53.9639C41.7395 53.1443 41.798 52.6333 41.7235 52.2608C41.5532 51.4092 40.8826 51.0899 39.9459 51.4145C39.1795 51.6806 38.3865 52.2129 37.636 52.958C36.9601 53.6339 36.3374 54.5334 36.3374 54.8367C36.3374 55.1507 36.5822 55.3743 36.9229 55.3796C37.338 55.3796 37.5562 55.2891 37.6573 55.0816C37.7425 54.9006 37.7425 54.8846 37.6307 54.6824L37.5189 54.4801L37.8649 54.0757C38.4663 53.3678 39.5627 52.5748 40.2546 52.3459C40.6963 52.1969 40.7549 52.2341 40.7549 52.6865C40.7549 53.0697 40.6218 53.6073 40.1375 55.1933C39.435 57.5032 39.4137 57.6682 39.749 57.9822C40.0204 58.2323 40.4249 58.0514 40.6538 57.5724C41.4894 55.832 43.0275 53.9426 44.0174 53.4423C44.4805 53.2134 44.5709 53.2454 44.8264 53.7563C45.2788 54.6558 45.497 54.9379 45.8909 55.1188C46.652 55.4701 47.7537 54.8421 48.9139 53.3944L49.2918 52.9207L49.3503 53.1283C49.526 53.7031 49.7868 53.916 50.3403 53.916C50.633 53.916 50.7448 53.884 51.0854 53.7191C51.9316 53.2933 52.9801 52.3512 54.3 50.8078C54.6513 50.4033 54.9547 50.0627 54.9707 50.0627C54.9866 50.0573 55.0292 50.2277 55.0665 50.4299C55.1037 50.6375 55.2048 50.9462 55.2953 51.1218C55.8701 52.2714 57.0836 52.0532 59.0209 50.4459C59.9044 49.7167 60.3461 49.2963 60.7187 48.8332C61.0221 48.4607 61.0859 48.3489 61.0859 48.1892C61.0859 47.8167 60.6708 47.641 60.3142 47.8752Z" fill="#366595"/>
<path d="M74.5193 47.8805C74.4022 47.939 74.2852 48.1359 74.2852 48.2796C74.2852 48.567 74.6205 48.8225 74.9185 48.7533C75.2645 48.6788 75.4188 48.2211 75.174 47.9922C75.0356 47.8592 74.679 47.8006 74.5193 47.8805Z" fill="#366595"/>
<path d="M70.0167 49.754C69.9688 49.7912 69.8464 49.9669 69.7453 50.1425C69.4259 50.6854 68.8884 51.1165 67.7867 51.7072C66.1687 52.5801 65.0084 52.9633 60.756 54.0171C56.9931 54.9538 55.7158 55.3051 53.821 55.9331C50.6862 56.9763 48.5839 57.9024 47.1256 58.8763C46.8116 59.0892 46.5083 59.2649 46.4497 59.2649C46.1996 59.2649 45.9707 59.4831 45.9707 59.7226C45.9707 59.8769 46.1517 60.1164 46.3326 60.2016C46.5668 60.3133 46.6786 60.2708 47.4184 59.7811C48.1954 59.2649 48.7117 58.9934 49.856 58.4878C51.772 57.6469 54.0818 56.8273 56.429 56.1513C57.1049 55.9544 59.0049 55.4594 60.6602 55.0549C65.1468 53.9426 65.8813 53.7191 67.5472 52.9367C69.3727 52.0798 70.517 51.1165 70.6873 50.2915C70.7299 50.1052 70.65 49.8604 70.517 49.7593C70.3999 49.6688 70.1338 49.6688 70.0167 49.754Z" fill="#366595"/>
</svg>
