<svg width="141" height="137" viewBox="0 0 141 137" fill="none" xmlns="http://www.w3.org/2000/svg">
<path fill-rule="evenodd" clip-rule="evenodd" d="M70.2171 0C31.4221 0 0 31.4221 0 70.2171C0 101.288 20.0996 127.532 48.0109 136.836C51.5218 137.45 52.8384 135.343 52.8384 133.5C52.8384 131.833 52.7506 126.303 52.7506 120.422C35.1086 123.67 30.5444 116.122 29.1401 112.172C28.3502 110.153 24.9271 103.921 21.9428 102.254C19.4852 100.937 15.9744 97.6895 21.8551 97.6018C27.3847 97.514 31.3344 102.692 32.6509 104.799C38.9705 115.419 49.0642 112.435 53.1017 110.592C53.7161 106.028 55.5593 102.956 57.578 101.2C41.9547 99.445 25.6292 93.3887 25.6292 66.5307C25.6292 58.8946 28.3502 52.5751 32.8265 47.6599C32.1243 45.9044 29.6667 38.7072 33.5287 29.0523C33.5287 29.0523 39.4093 27.2091 52.8384 36.2496C58.4557 34.6697 64.4242 33.8797 70.3926 33.8797C76.3611 33.8797 82.3295 34.6697 87.9469 36.2496C101.376 27.1214 107.257 29.0523 107.257 29.0523C111.119 38.7072 108.661 45.9044 107.959 47.6599C112.435 52.5751 115.156 58.8068 115.156 66.5307C115.156 93.4765 98.7428 99.445 83.1195 101.2C85.6649 103.395 87.8591 107.608 87.8591 114.191C87.8591 123.582 87.7714 131.13 87.7714 133.5C87.7714 135.343 89.0879 137.538 92.5988 136.836C106.538 132.13 118.651 123.171 127.232 111.22C135.813 99.27 140.431 84.9293 140.434 70.2171C140.434 31.4221 109.012 0 70.2171 0Z" fill="#366595"/>
</svg>
