<svg width="80" height="70" viewBox="0 0 80 70" fill="none" xmlns="http://www.w3.org/2000/svg">
<mask id="path-1-outside-1_643_113" maskUnits="userSpaceOnUse" x="0" y="-0.35907" width="80" height="70" fill="black">
<rect fill="white" y="-0.35907" width="80" height="70"/>
<path d="M59.6348 2.028C57.3675 2.21961 54.9619 2.93811 52.5828 4.12498C50.4326 5.20008 48.16 6.74885 46.1216 8.53181C44.014 10.3733 42.5876 11.8689 40.81 14.0989C40.4055 14.6098 40.0755 15.009 40.0755 14.993C40.0755 14.9451 40.7674 13.2261 41.2996 11.954C42.0128 10.2509 42.4439 9.28758 43.6308 6.73821C43.7638 6.44549 44.1098 5.74827 44.3972 5.18943C44.9879 4.0345 45.0252 3.88015 44.7644 3.61936C44.5568 3.41712 44.3386 3.41179 44.1257 3.60872C44.0406 3.69387 43.519 4.42835 42.9708 5.24798C40.0648 9.58562 37.9093 12.4756 33.9602 17.3295C31.8898 19.8682 25.9236 27.0906 24.3269 28.9853C20.117 33.9776 17.3601 36.8622 14.2359 39.5287C11.3512 41.9929 8.91895 43.4938 7.05615 43.9675C5.87993 44.2655 4.71968 43.9408 3.96392 43.1053C3.12832 42.1792 2.76108 40.8699 3.00591 39.683C3.40508 37.7617 4.9645 36.1384 6.86455 35.6594C7.25308 35.5583 7.41274 35.5476 8.00884 35.5742C9.052 35.6168 9.65874 35.8244 10.4997 36.4098C11.0745 36.809 11.4523 36.825 11.6067 36.4577C11.6865 36.2555 11.5907 36.0107 11.3885 35.9042C11.3033 35.8616 11.0159 35.6754 10.7392 35.4891C9.99404 34.9835 9.26489 34.728 8.20576 34.6003C7.29033 34.4885 6.327 34.6961 5.2998 35.2283C3.7936 36.0054 2.65996 37.3785 2.1437 39.0497C2.01064 39.4861 2 39.5926 2 40.4282C2 41.2584 2.01064 41.3702 2.1437 41.8013C2.49497 42.9456 3.25605 43.9994 4.07568 44.4784C4.7729 44.8882 5.72559 45.1224 6.43877 45.0638C9.87695 44.7658 15.5877 40.3909 22.1075 33.0675C23.4807 31.524 25.9768 28.5648 29.0105 24.8871C33.9176 18.9368 34.7106 17.9735 36.3765 15.8925C37.8508 14.051 39.3144 12.135 40.6237 10.3361C40.9962 9.83045 41.2996 9.42595 41.2996 9.44192C41.2996 9.45257 41.1878 9.71336 41.0548 10.0167C40.6769 10.8683 39.4847 13.7636 39.1015 14.7748C38.5959 16.1001 38.2659 17.1273 38.2659 17.3827C38.2659 17.7766 38.6544 18.0267 39.0323 17.8671C39.2346 17.7819 39.4209 17.5637 40.3416 16.3183C41.8318 14.3065 43.3008 12.5767 44.6952 11.1929C49.5332 6.40291 54.3977 3.66726 59.1824 3.06585C60.1351 2.94343 62.0671 2.98069 62.908 3.14036C66.7134 3.84822 69.9334 5.90261 72.6105 9.33015C74.601 11.8795 75.7613 14.7642 76.1711 18.1811C76.2775 19.0805 76.2616 21.6672 76.1445 22.5986C75.5324 27.3673 73.4621 31.7795 69.8536 36.0107C69.0499 36.9474 67.2137 38.7942 66.2344 39.6511C61.1836 44.0633 55.1535 47.4163 49.9483 48.7202C48.027 49.2046 46.5793 49.3749 44.8921 49.327C42.9655 49.2684 41.6615 48.9704 40.2085 48.2519C37.7656 47.0384 36.0199 44.8084 35.3174 42.0035C35.0566 40.9604 34.9927 40.4122 34.9927 39.0337C34.9927 38.2407 35.014 37.7244 35.0459 37.6978C35.1151 37.6286 36.3925 37.8469 37.1908 38.0651C39.8307 38.7676 42.8058 40.5665 44.3014 42.3655C44.8017 42.9669 45.0252 43.3448 45.2062 43.9142C45.3605 44.3826 45.3871 44.4252 45.5627 44.5157C45.7543 44.6061 45.765 44.6061 46.0684 44.4944C47.0689 44.1271 48.655 42.4346 50.3581 39.9225C53.5994 35.1431 55.5633 29.757 55.5633 25.6589C55.5633 23.8653 55.2227 22.5347 54.4882 21.4277C53.0725 19.3041 50.257 18.857 46.8294 20.2089C44.7591 21.0232 42.6994 22.4176 40.7461 24.3283C37.4197 27.5855 35.0885 31.7635 34.3008 35.8776C34.2583 36.1278 34.205 36.3832 34.1891 36.4471C34.1678 36.5695 34.1518 36.5695 33.3801 36.5695C30.852 36.5695 28.4463 37.1443 25.9289 38.3578C22.3204 40.0875 19.0632 42.9882 16.8757 46.421C14.2838 50.4926 13.2247 55.5274 14.1561 59.3488C14.9384 62.5422 16.8491 65.049 19.5422 66.4061C21.373 67.3269 23.5232 67.7793 25.2796 67.6036C28.0578 67.3269 30.5859 66.0602 32.6775 63.894C34.3381 62.1696 35.7325 60.062 36.5255 58.0715C36.9886 56.9165 37.3452 55.4582 37.276 55.0058C37.2121 54.5694 36.9354 54.282 36.5788 54.282C36.2222 54.282 36.0146 54.6812 36.2222 54.9792C36.3393 55.1442 36.2914 55.6019 36.0785 56.3258C35.5196 58.2365 34.7373 59.7639 33.4333 61.5043C31.347 64.2825 29.0211 65.8846 26.2003 66.4913C25.6947 66.5977 25.4818 66.6137 24.4546 66.6137C23.4381 66.6137 23.2092 66.5977 22.7249 66.4913C21.4848 66.2199 20.0478 65.645 19.1324 65.0436C16.8864 63.5694 15.4334 61.2169 14.9278 58.2311C14.7947 57.4541 14.7681 55.8574 14.8692 54.9367C15.4813 49.4441 18.6055 44.372 23.4966 40.9125C25.7959 39.2839 28.473 38.1502 30.9797 37.7404C31.8207 37.602 33.2577 37.5009 33.6941 37.5488L34.0347 37.5861V39.0869C34.0347 40.6889 34.0773 41.0828 34.3594 42.2164C35.3546 46.2294 38.2819 49.1194 42.2363 50.0029C44.1364 50.4287 46.3771 50.4287 48.6976 50.0029C54.898 48.8693 62.6579 44.5369 68.3261 39.0497C73.196 34.3288 76.2775 28.7564 77.0333 23.2905C77.2409 21.8002 77.2994 19.8416 77.177 18.4738C76.9641 16.132 76.3201 13.7902 75.3568 11.8689C74.3083 9.7719 72.6957 7.65896 71.0138 6.15808C68.4378 3.87483 65.6224 2.51765 62.5887 2.10252C61.8861 2.00672 60.332 1.96946 59.6348 2.028ZM50.9329 20.443C52.2156 20.5761 53.0671 21.0604 53.7058 22.0291C55.0204 24.0196 54.8607 27.7558 53.2641 32.1786C52.0187 35.6328 49.7833 39.4595 47.4788 42.0727C47.0264 42.589 46.1855 43.382 46.095 43.382C46.0737 43.382 46.0258 43.2915 45.9885 43.1798C45.8022 42.6582 45.0092 41.5991 44.3014 40.9338C42.4386 39.1881 39.8041 37.7244 37.3665 37.0964C37.0258 37.0059 36.4031 36.8782 35.9827 36.8037C35.5569 36.7345 35.2003 36.66 35.1897 36.6493C35.1045 36.5695 35.5675 34.6588 35.9135 33.6423C37.4516 29.1237 40.7887 24.8765 44.8017 22.3431C46.4622 21.2946 48.3676 20.5761 49.8631 20.443C50.1133 20.4218 50.3368 20.4005 50.3528 20.3951C50.3741 20.3951 50.6349 20.4164 50.9329 20.443Z"/>
</mask>
<path d="M59.6348 2.028C57.3675 2.21961 54.9619 2.93811 52.5828 4.12498C50.4326 5.20008 48.16 6.74885 46.1216 8.53181C44.014 10.3733 42.5876 11.8689 40.81 14.0989C40.4055 14.6098 40.0755 15.009 40.0755 14.993C40.0755 14.9451 40.7674 13.2261 41.2996 11.954C42.0128 10.2509 42.4439 9.28758 43.6308 6.73821C43.7638 6.44549 44.1098 5.74827 44.3972 5.18943C44.9879 4.0345 45.0252 3.88015 44.7644 3.61936C44.5568 3.41712 44.3386 3.41179 44.1257 3.60872C44.0406 3.69387 43.519 4.42835 42.9708 5.24798C40.0648 9.58562 37.9093 12.4756 33.9602 17.3295C31.8898 19.8682 25.9236 27.0906 24.3269 28.9853C20.117 33.9776 17.3601 36.8622 14.2359 39.5287C11.3512 41.9929 8.91895 43.4938 7.05615 43.9675C5.87993 44.2655 4.71968 43.9408 3.96392 43.1053C3.12832 42.1792 2.76108 40.8699 3.00591 39.683C3.40508 37.7617 4.9645 36.1384 6.86455 35.6594C7.25308 35.5583 7.41274 35.5476 8.00884 35.5742C9.052 35.6168 9.65874 35.8244 10.4997 36.4098C11.0745 36.809 11.4523 36.825 11.6067 36.4577C11.6865 36.2555 11.5907 36.0107 11.3885 35.9042C11.3033 35.8616 11.0159 35.6754 10.7392 35.4891C9.99404 34.9835 9.26489 34.728 8.20576 34.6003C7.29033 34.4885 6.327 34.6961 5.2998 35.2283C3.7936 36.0054 2.65996 37.3785 2.1437 39.0497C2.01064 39.4861 2 39.5926 2 40.4282C2 41.2584 2.01064 41.3702 2.1437 41.8013C2.49497 42.9456 3.25605 43.9994 4.07568 44.4784C4.7729 44.8882 5.72559 45.1224 6.43877 45.0638C9.87695 44.7658 15.5877 40.3909 22.1075 33.0675C23.4807 31.524 25.9768 28.5648 29.0105 24.8871C33.9176 18.9368 34.7106 17.9735 36.3765 15.8925C37.8508 14.051 39.3144 12.135 40.6237 10.3361C40.9962 9.83045 41.2996 9.42595 41.2996 9.44192C41.2996 9.45257 41.1878 9.71336 41.0548 10.0167C40.6769 10.8683 39.4847 13.7636 39.1015 14.7748C38.5959 16.1001 38.2659 17.1273 38.2659 17.3827C38.2659 17.7766 38.6544 18.0267 39.0323 17.8671C39.2346 17.7819 39.4209 17.5637 40.3416 16.3183C41.8318 14.3065 43.3008 12.5767 44.6952 11.1929C49.5332 6.40291 54.3977 3.66726 59.1824 3.06585C60.1351 2.94343 62.0671 2.98069 62.908 3.14036C66.7134 3.84822 69.9334 5.90261 72.6105 9.33015C74.601 11.8795 75.7613 14.7642 76.1711 18.1811C76.2775 19.0805 76.2616 21.6672 76.1445 22.5986C75.5324 27.3673 73.4621 31.7795 69.8536 36.0107C69.0499 36.9474 67.2137 38.7942 66.2344 39.6511C61.1836 44.0633 55.1535 47.4163 49.9483 48.7202C48.027 49.2046 46.5793 49.3749 44.8921 49.327C42.9655 49.2684 41.6615 48.9704 40.2085 48.2519C37.7656 47.0384 36.0199 44.8084 35.3174 42.0035C35.0566 40.9604 34.9927 40.4122 34.9927 39.0337C34.9927 38.2407 35.014 37.7244 35.0459 37.6978C35.1151 37.6286 36.3925 37.8469 37.1908 38.0651C39.8307 38.7676 42.8058 40.5665 44.3014 42.3655C44.8017 42.9669 45.0252 43.3448 45.2062 43.9142C45.3605 44.3826 45.3871 44.4252 45.5627 44.5157C45.7543 44.6061 45.765 44.6061 46.0684 44.4944C47.0689 44.1271 48.655 42.4346 50.3581 39.9225C53.5994 35.1431 55.5633 29.757 55.5633 25.6589C55.5633 23.8653 55.2227 22.5347 54.4882 21.4277C53.0725 19.3041 50.257 18.857 46.8294 20.2089C44.7591 21.0232 42.6994 22.4176 40.7461 24.3283C37.4197 27.5855 35.0885 31.7635 34.3008 35.8776C34.2583 36.1278 34.205 36.3832 34.1891 36.4471C34.1678 36.5695 34.1518 36.5695 33.3801 36.5695C30.852 36.5695 28.4463 37.1443 25.9289 38.3578C22.3204 40.0875 19.0632 42.9882 16.8757 46.421C14.2838 50.4926 13.2247 55.5274 14.1561 59.3488C14.9384 62.5422 16.8491 65.049 19.5422 66.4061C21.373 67.3269 23.5232 67.7793 25.2796 67.6036C28.0578 67.3269 30.5859 66.0602 32.6775 63.894C34.3381 62.1696 35.7325 60.062 36.5255 58.0715C36.9886 56.9165 37.3452 55.4582 37.276 55.0058C37.2121 54.5694 36.9354 54.282 36.5788 54.282C36.2222 54.282 36.0146 54.6812 36.2222 54.9792C36.3393 55.1442 36.2914 55.6019 36.0785 56.3258C35.5196 58.2365 34.7373 59.7639 33.4333 61.5043C31.347 64.2825 29.0211 65.8846 26.2003 66.4913C25.6947 66.5977 25.4818 66.6137 24.4546 66.6137C23.4381 66.6137 23.2092 66.5977 22.7249 66.4913C21.4848 66.2199 20.0478 65.645 19.1324 65.0436C16.8864 63.5694 15.4334 61.2169 14.9278 58.2311C14.7947 57.4541 14.7681 55.8574 14.8692 54.9367C15.4813 49.4441 18.6055 44.372 23.4966 40.9125C25.7959 39.2839 28.473 38.1502 30.9797 37.7404C31.8207 37.602 33.2577 37.5009 33.6941 37.5488L34.0347 37.5861V39.0869C34.0347 40.6889 34.0773 41.0828 34.3594 42.2164C35.3546 46.2294 38.2819 49.1194 42.2363 50.0029C44.1364 50.4287 46.3771 50.4287 48.6976 50.0029C54.898 48.8693 62.6579 44.5369 68.3261 39.0497C73.196 34.3288 76.2775 28.7564 77.0333 23.2905C77.2409 21.8002 77.2994 19.8416 77.177 18.4738C76.9641 16.132 76.3201 13.7902 75.3568 11.8689C74.3083 9.7719 72.6957 7.65896 71.0138 6.15808C68.4378 3.87483 65.6224 2.51765 62.5887 2.10252C61.8861 2.00672 60.332 1.96946 59.6348 2.028ZM50.9329 20.443C52.2156 20.5761 53.0671 21.0604 53.7058 22.0291C55.0204 24.0196 54.8607 27.7558 53.2641 32.1786C52.0187 35.6328 49.7833 39.4595 47.4788 42.0727C47.0264 42.589 46.1855 43.382 46.095 43.382C46.0737 43.382 46.0258 43.2915 45.9885 43.1798C45.8022 42.6582 45.0092 41.5991 44.3014 40.9338C42.4386 39.1881 39.8041 37.7244 37.3665 37.0964C37.0258 37.0059 36.4031 36.8782 35.9827 36.8037C35.5569 36.7345 35.2003 36.66 35.1897 36.6493C35.1045 36.5695 35.5675 34.6588 35.9135 33.6423C37.4516 29.1237 40.7887 24.8765 44.8017 22.3431C46.4622 21.2946 48.3676 20.5761 49.8631 20.443C50.1133 20.4218 50.3368 20.4005 50.3528 20.3951C50.3741 20.3951 50.6349 20.4164 50.9329 20.443Z" fill="#366595"/>
<path d="M59.6348 2.028C57.3675 2.21961 54.9619 2.93811 52.5828 4.12498C50.4326 5.20008 48.16 6.74885 46.1216 8.53181C44.014 10.3733 42.5876 11.8689 40.81 14.0989C40.4055 14.6098 40.0755 15.009 40.0755 14.993C40.0755 14.9451 40.7674 13.2261 41.2996 11.954C42.0128 10.2509 42.4439 9.28758 43.6308 6.73821C43.7638 6.44549 44.1098 5.74827 44.3972 5.18943C44.9879 4.0345 45.0252 3.88015 44.7644 3.61936C44.5568 3.41712 44.3386 3.41179 44.1257 3.60872C44.0406 3.69387 43.519 4.42835 42.9708 5.24798C40.0648 9.58562 37.9093 12.4756 33.9602 17.3295C31.8898 19.8682 25.9236 27.0906 24.3269 28.9853C20.117 33.9776 17.3601 36.8622 14.2359 39.5287C11.3512 41.9929 8.91895 43.4938 7.05615 43.9675C5.87993 44.2655 4.71968 43.9408 3.96392 43.1053C3.12832 42.1792 2.76108 40.8699 3.00591 39.683C3.40508 37.7617 4.9645 36.1384 6.86455 35.6594C7.25308 35.5583 7.41274 35.5476 8.00884 35.5742C9.052 35.6168 9.65874 35.8244 10.4997 36.4098C11.0745 36.809 11.4523 36.825 11.6067 36.4577C11.6865 36.2555 11.5907 36.0107 11.3885 35.9042C11.3033 35.8616 11.0159 35.6754 10.7392 35.4891C9.99404 34.9835 9.26489 34.728 8.20576 34.6003C7.29033 34.4885 6.327 34.6961 5.2998 35.2283C3.7936 36.0054 2.65996 37.3785 2.1437 39.0497C2.01064 39.4861 2 39.5926 2 40.4282C2 41.2584 2.01064 41.3702 2.1437 41.8013C2.49497 42.9456 3.25605 43.9994 4.07568 44.4784C4.7729 44.8882 5.72559 45.1224 6.43877 45.0638C9.87695 44.7658 15.5877 40.3909 22.1075 33.0675C23.4807 31.524 25.9768 28.5648 29.0105 24.8871C33.9176 18.9368 34.7106 17.9735 36.3765 15.8925C37.8508 14.051 39.3144 12.135 40.6237 10.3361C40.9962 9.83045 41.2996 9.42595 41.2996 9.44192C41.2996 9.45257 41.1878 9.71336 41.0548 10.0167C40.6769 10.8683 39.4847 13.7636 39.1015 14.7748C38.5959 16.1001 38.2659 17.1273 38.2659 17.3827C38.2659 17.7766 38.6544 18.0267 39.0323 17.8671C39.2346 17.7819 39.4209 17.5637 40.3416 16.3183C41.8318 14.3065 43.3008 12.5767 44.6952 11.1929C49.5332 6.40291 54.3977 3.66726 59.1824 3.06585C60.1351 2.94343 62.0671 2.98069 62.908 3.14036C66.7134 3.84822 69.9334 5.90261 72.6105 9.33015C74.601 11.8795 75.7613 14.7642 76.1711 18.1811C76.2775 19.0805 76.2616 21.6672 76.1445 22.5986C75.5324 27.3673 73.4621 31.7795 69.8536 36.0107C69.0499 36.9474 67.2137 38.7942 66.2344 39.6511C61.1836 44.0633 55.1535 47.4163 49.9483 48.7202C48.027 49.2046 46.5793 49.3749 44.8921 49.327C42.9655 49.2684 41.6615 48.9704 40.2085 48.2519C37.7656 47.0384 36.0199 44.8084 35.3174 42.0035C35.0566 40.9604 34.9927 40.4122 34.9927 39.0337C34.9927 38.2407 35.014 37.7244 35.0459 37.6978C35.1151 37.6286 36.3925 37.8469 37.1908 38.0651C39.8307 38.7676 42.8058 40.5665 44.3014 42.3655C44.8017 42.9669 45.0252 43.3448 45.2062 43.9142C45.3605 44.3826 45.3871 44.4252 45.5627 44.5157C45.7543 44.6061 45.765 44.6061 46.0684 44.4944C47.0689 44.1271 48.655 42.4346 50.3581 39.9225C53.5994 35.1431 55.5633 29.757 55.5633 25.6589C55.5633 23.8653 55.2227 22.5347 54.4882 21.4277C53.0725 19.3041 50.257 18.857 46.8294 20.2089C44.7591 21.0232 42.6994 22.4176 40.7461 24.3283C37.4197 27.5855 35.0885 31.7635 34.3008 35.8776C34.2583 36.1278 34.205 36.3832 34.1891 36.4471C34.1678 36.5695 34.1518 36.5695 33.3801 36.5695C30.852 36.5695 28.4463 37.1443 25.9289 38.3578C22.3204 40.0875 19.0632 42.9882 16.8757 46.421C14.2838 50.4926 13.2247 55.5274 14.1561 59.3488C14.9384 62.5422 16.8491 65.049 19.5422 66.4061C21.373 67.3269 23.5232 67.7793 25.2796 67.6036C28.0578 67.3269 30.5859 66.0602 32.6775 63.894C34.3381 62.1696 35.7325 60.062 36.5255 58.0715C36.9886 56.9165 37.3452 55.4582 37.276 55.0058C37.2121 54.5694 36.9354 54.282 36.5788 54.282C36.2222 54.282 36.0146 54.6812 36.2222 54.9792C36.3393 55.1442 36.2914 55.6019 36.0785 56.3258C35.5196 58.2365 34.7373 59.7639 33.4333 61.5043C31.347 64.2825 29.0211 65.8846 26.2003 66.4913C25.6947 66.5977 25.4818 66.6137 24.4546 66.6137C23.4381 66.6137 23.2092 66.5977 22.7249 66.4913C21.4848 66.2199 20.0478 65.645 19.1324 65.0436C16.8864 63.5694 15.4334 61.2169 14.9278 58.2311C14.7947 57.4541 14.7681 55.8574 14.8692 54.9367C15.4813 49.4441 18.6055 44.372 23.4966 40.9125C25.7959 39.2839 28.473 38.1502 30.9797 37.7404C31.8207 37.602 33.2577 37.5009 33.6941 37.5488L34.0347 37.5861V39.0869C34.0347 40.6889 34.0773 41.0828 34.3594 42.2164C35.3546 46.2294 38.2819 49.1194 42.2363 50.0029C44.1364 50.4287 46.3771 50.4287 48.6976 50.0029C54.898 48.8693 62.6579 44.5369 68.3261 39.0497C73.196 34.3288 76.2775 28.7564 77.0333 23.2905C77.2409 21.8002 77.2994 19.8416 77.177 18.4738C76.9641 16.132 76.3201 13.7902 75.3568 11.8689C74.3083 9.7719 72.6957 7.65896 71.0138 6.15808C68.4378 3.87483 65.6224 2.51765 62.5887 2.10252C61.8861 2.00672 60.332 1.96946 59.6348 2.028ZM50.9329 20.443C52.2156 20.5761 53.0671 21.0604 53.7058 22.0291C55.0204 24.0196 54.8607 27.7558 53.2641 32.1786C52.0187 35.6328 49.7833 39.4595 47.4788 42.0727C47.0264 42.589 46.1855 43.382 46.095 43.382C46.0737 43.382 46.0258 43.2915 45.9885 43.1798C45.8022 42.6582 45.0092 41.5991 44.3014 40.9338C42.4386 39.1881 39.8041 37.7244 37.3665 37.0964C37.0258 37.0059 36.4031 36.8782 35.9827 36.8037C35.5569 36.7345 35.2003 36.66 35.1897 36.6493C35.1045 36.5695 35.5675 34.6588 35.9135 33.6423C37.4516 29.1237 40.7887 24.8765 44.8017 22.3431C46.4622 21.2946 48.3676 20.5761 49.8631 20.443C50.1133 20.4218 50.3368 20.4005 50.3528 20.3951C50.3741 20.3951 50.6349 20.4164 50.9329 20.443Z" stroke="#366595" stroke-width="4" mask="url(#path-1-outside-1_643_113)"/>
<path d="M61.6402 53.2164C62.5362 52.4769 63.0408 52.0052 63.4777 51.4626C63.4882 51.4498 63.4988 51.4368 63.5095 51.4237C63.7574 51.1204 64.0679 50.7406 64.0679 50.1892C64.0679 49.5835 63.7063 49.0903 63.1971 48.8803C62.7133 48.6807 62.1775 48.7601 61.755 49.0343C61.6142 49.1244 61.4895 49.2436 61.4145 49.3194C61.3255 49.4093 61.2292 49.5174 61.144 49.6295C61.142 49.6319 61.1386 49.6359 61.1334 49.6419C61.1239 49.6528 61.1109 49.6673 61.0938 49.6857C61.0595 49.7226 61.0147 49.7689 60.9597 49.8239C60.8495 49.9338 60.7095 50.0672 60.5523 50.212C60.2367 50.5026 59.8708 50.8213 59.5676 51.0648L59.5665 51.0657C59.335 51.2522 59.1168 51.4107 58.9225 51.5378C58.9118 51.4148 58.9053 51.2844 58.9053 51.1526L58.9053 51.1307C58.9053 50.9296 58.9054 50.6933 58.866 50.4922C58.8022 50.1659 58.652 49.9626 58.5374 49.8275C58.1508 49.3654 57.5034 49.1173 56.8579 49.357C56.6729 49.4247 56.5396 49.532 56.498 49.5655L56.4963 49.5669C56.4261 49.6233 56.3609 49.6847 56.306 49.7396C56.1946 49.851 56.0783 49.9834 55.9748 50.1127L55.9725 50.1155C55.5605 50.6344 54.5456 51.8067 53.9853 52.4084L53.9826 52.4114L53.9826 52.4114C53.805 52.6037 53.6258 52.7864 53.4507 52.9551C53.4339 52.8322 53.4025 52.7141 53.3537 52.5903L53.3477 52.575L53.3412 52.5599C53.196 52.224 52.9393 51.9863 52.6802 51.8452C52.4244 51.7058 52.0693 51.6089 51.6851 51.692C51.5503 51.7211 51.3799 51.7748 51.1971 51.8979C51.0434 52.0012 50.9214 52.1271 50.8246 52.2365C50.6368 52.449 50.3734 52.8003 49.9653 53.3505C49.329 54.2054 48.9118 54.6776 48.6204 54.9421C48.3396 54.4004 47.9872 53.8529 47.4451 53.5445C46.808 53.1822 46.1571 53.2742 45.6157 53.457C45.2964 53.5645 44.9709 53.7398 44.66 53.9477C44.5099 53.336 44.1498 52.7869 43.5339 52.4937C42.9101 52.1967 42.2174 52.2558 41.6004 52.4697L41.5998 52.4698C40.6539 52.7983 39.7374 53.4302 38.9134 54.2484L38.9109 54.2509C38.5299 54.6318 38.1667 55.072 37.8927 55.4683C37.7562 55.6657 37.6299 55.8693 37.5332 56.0622C37.4602 56.2078 37.3193 56.5057 37.3193 56.8367C37.3193 57.7842 38.094 58.3671 38.8892 58.3795L38.897 58.3796H38.9048C39.3972 58.3796 40.1682 58.279 40.5382 57.5195L40.5442 57.5074L40.5441 57.5074C40.5447 57.5059 40.546 57.5035 40.5478 57.5C40.5746 57.4474 40.7194 57.1634 40.6978 56.826C40.6939 56.7653 40.6847 56.7065 40.6722 56.6508C40.8739 56.4269 41.1475 56.1796 41.4469 55.9507C41.3724 56.2085 41.2792 56.5208 41.163 56.9013L41.1627 56.9023C40.824 58.0159 40.6104 58.7308 40.5455 59.1988C40.5105 59.4509 40.4969 59.7594 40.6096 60.0751C40.7269 60.4037 40.9358 60.6076 41.0474 60.7121L41.0532 60.7176L41.0532 60.7176C41.5143 61.1425 42.1208 61.1832 42.6106 60.9622C43.0495 60.7641 43.3541 60.3881 43.5376 60.0044C43.9171 59.214 44.4658 58.3728 45.0351 57.6738C45.4404 57.176 45.8126 56.8043 46.1031 56.5704C46.4708 57.2596 46.8183 57.7348 47.4553 58.0275L47.8645 57.1368C47.9671 57.1847 48.0918 57.2242 48.2379 57.2369C48.4552 57.2558 48.6297 57.2056 48.7059 57.1819C48.7787 57.1592 48.855 57.1289 48.9017 57.1104L61.6402 53.2164ZM61.6402 53.2164C60.649 54.0386 59.6933 54.6413 58.8072 54.8017C58.3339 54.8874 57.8341 54.855 57.3707 54.6158C57.054 54.4523 56.8054 54.2185 56.6121 53.9503M61.6402 53.2164L56.6121 53.9503M56.6121 53.9503C55.4579 55.2446 54.4392 56.1483 53.5168 56.6124L53.5101 56.6158L53.5033 56.619C53.3313 56.7023 53.1428 56.79 52.9348 56.8455C52.7061 56.9066 52.5058 56.916 52.3222 56.916C51.9618 56.916 51.5486 56.8536 51.1751 56.6025C50.705 57.1095 50.2199 57.5205 49.7301 57.7999C49.0714 58.1755 48.2466 58.3927 47.4537 58.0268L47.8645 57.1368L56.6121 53.9503ZM58.3101 51.8633C58.3101 51.8633 58.3111 51.8631 58.313 51.8626C58.3111 51.863 58.3101 51.8633 58.3101 51.8633Z" fill="#366595" stroke="#366595" stroke-width="2"/>
<path d="M77.1559 49.9922C77.0624 49.9024 76.8693 49.8465 76.7046 49.8443C76.6995 49.8442 76.6945 49.8442 76.6894 49.8442C76.6163 49.8448 76.5497 49.8563 76.5013 49.8805C76.4146 49.9238 76.328 50.0429 76.2888 50.1601C76.2926 50.1424 76.297 50.1263 76.3019 50.112C76.3298 50.0288 76.3907 49.932 76.4916 49.8612C76.5422 49.8257 76.6028 49.7967 76.6743 49.7793C76.6769 49.7787 76.6796 49.7781 76.6822 49.7775C76.6848 49.7769 76.6873 49.7764 76.6899 49.7758C76.8773 49.7375 77.0104 49.8039 77.0734 49.8513C77.1002 49.8715 77.1416 49.9094 77.1793 49.9673L77.1559 49.9922ZM77.1559 49.9922L77.1795 49.9677C77.208 50.0116 77.2344 50.0669 77.2505 50.1346C77.2311 50.0821 77.2 50.0335 77.1559 49.9922ZM76.9004 50.7533C76.7681 50.7841 76.6283 50.7507 76.5139 50.679C76.5101 50.6766 76.5063 50.6742 76.5025 50.6717C76.4065 50.6085 76.3296 50.518 76.2921 50.4161C76.315 50.5141 76.3659 50.6187 76.4628 50.713C76.4646 50.7147 76.4663 50.7164 76.4681 50.7181C76.4697 50.7197 76.4714 50.7212 76.473 50.7227C76.5531 50.7968 76.6203 50.8252 76.6349 50.8312C76.6569 50.8404 76.6683 50.8423 76.6703 50.8426C76.6704 50.8426 76.6704 50.8426 76.6705 50.8426C76.6705 50.8426 76.6706 50.8427 76.6706 50.8427C76.6726 50.843 76.6862 50.8453 76.7144 50.8436C76.7305 50.8426 76.8062 50.8375 76.909 50.7932L76.9004 50.7533ZM76.9004 50.7533C76.9117 50.7509 76.9227 50.7481 76.9335 50.7449C77.0916 50.6981 77.205 50.5695 77.2517 50.4245C77.2472 50.4447 77.2425 50.4609 77.2387 50.4727C77.227 50.5086 77.2138 50.5354 77.2018 50.5558C77.19 50.5759 77.1713 50.6034 77.1409 50.6354C77.1142 50.6636 77.0524 50.7229 76.9485 50.7749C76.9352 50.7816 76.9222 50.7876 76.9096 50.793L76.9004 50.7533ZM77.0027 48.8704C77.213 48.9058 77.5651 49.0016 77.8434 49.2661C78.3126 49.7085 78.3422 50.3193 78.1976 50.7494C78.0528 51.1799 77.6845 51.6043 77.1187 51.7292C76.6281 51.8403 76.1759 51.6789 75.8706 51.4492C75.5683 51.2216 75.2671 50.8156 75.2671 50.2796C75.2671 49.9703 75.3797 49.7085 75.4787 49.5404C75.5731 49.3803 75.755 49.1356 76.0541 48.9861C76.4165 48.8048 76.8008 48.8364 77.0027 48.8704Z" fill="#366595" stroke="#366595" stroke-width="2"/>
<path d="M71.3974 50.9547L71.3847 50.9646C71.2761 51.0491 71.1987 51.1448 71.1741 51.1752L71.173 51.1765C71.1336 51.2251 71.096 51.2765 71.0629 51.3239C70.9971 51.4182 70.9268 51.5288 70.8633 51.6387C70.69 51.9316 70.3613 52.2547 69.296 52.8259L69.2938 52.8271C67.7981 53.634 66.7485 53.993 62.4974 55.0465L62.4963 55.0467C58.728 55.9848 57.4205 56.3435 55.4883 56.9839L55.4872 56.9843C52.3274 58.0357 50.1234 58.9953 48.5522 60.0447L48.5464 60.0486L48.5464 60.0486C48.4051 60.1444 48.2717 60.228 48.1746 60.2839C48.1705 60.2863 48.1664 60.2886 48.1626 60.2908C47.5113 60.4167 46.9526 60.9875 46.9526 61.7226C46.9526 62.1235 47.1519 62.4374 47.2679 62.5908C47.4034 62.7703 47.6114 62.9751 47.8859 63.105C47.9892 63.1542 48.1704 63.2318 48.405 63.2491C48.6492 63.2672 48.86 63.2147 49.0285 63.1496C49.3021 63.0438 49.6165 62.8372 49.9522 62.615L49.9537 62.614C50.6687 62.139 51.1307 61.8936 52.2409 61.403C54.1095 60.583 56.3762 59.7779 58.6876 59.1123L58.6906 59.1114C59.3444 58.9209 61.2268 58.4302 62.8795 58.0264L62.8827 58.0256C67.3647 56.9144 68.1884 56.6711 69.954 55.8419L71.3974 50.9547ZM71.3974 50.9547L71.4105 50.9452M71.3974 50.9547L71.4105 50.9452M70.2423 54.5879C70.2426 54.5877 70.243 54.5875 70.2434 54.5873L70.2393 54.5797L70.2423 54.5879ZM70.2423 54.5879C70.2419 54.5881 70.2415 54.5883 70.2412 54.5885L70.2371 54.5809M70.2423 54.5879L70.2371 54.5809M70.2371 54.5809C70.0142 54.701 69.778 54.8198 69.5291 54.9367C67.9054 55.6992 67.1665 55.9309 62.9756 56.9722L62.9795 56.9875C62.9793 56.9875 62.9791 56.9876 62.9789 56.9876M70.2371 54.5809L69.5359 54.9511C68.0924 55.6518 66.6413 56.08 62.9789 56.9876M62.9789 56.9876C62.9788 56.9877 62.9786 56.9877 62.9784 56.9877L62.9746 56.9724L56.1181 58.8822C56.9145 58.6182 57.5987 58.4042 58.4169 58.1721C58.4169 58.1721 58.4169 58.1721 58.4169 58.1721C59.4489 57.8793 60.694 57.5576 62.6459 57.0706C62.6459 57.0706 62.646 57.0706 62.646 57.0706C62.7547 57.0435 62.8657 57.0158 62.9789 56.9876ZM71.4105 50.9452C71.714 50.7245 72.0572 50.6894 72.2557 50.6908C72.4529 50.6922 72.8022 50.7315 73.1072 50.9656C73.385 51.178 73.5307 51.4662 73.6018 51.687C73.6753 51.9153 73.7125 52.2044 73.6465 52.5036M71.4105 50.9452L73.6465 52.5036M73.6465 52.5036C73.4906 53.2412 72.9571 53.8675 72.3641 54.367C71.7415 54.8913 70.9173 55.3897 69.9542 55.8418L73.6465 52.5036Z" fill="#366595" stroke="#366595" stroke-width="2"/>
</svg>
