<svg width="141" height="141" viewBox="0 0 141 141" fill="none" xmlns="http://www.w3.org/2000/svg">
<path fill-rule="evenodd" clip-rule="evenodd" d="M41.2681 0.421302C48.758 0.0780047 51.1454 0 70.2171 0C89.2925 0 91.6761 0.0818986 99.1619 0.421302C106.64 0.760706 111.747 1.9505 116.213 3.6864C120.898 5.45019 125.142 8.21374 128.649 11.7848C132.221 15.292 134.985 19.5361 136.748 24.221C138.483 28.6876 139.669 33.794 140.013 41.2681C140.356 48.758 140.434 51.1454 140.434 70.2171C140.434 89.2887 140.352 91.6761 140.013 99.1663C139.673 106.64 138.483 111.747 136.748 116.213C134.953 120.828 132.55 124.748 128.649 128.649C125.142 132.221 120.898 134.985 116.213 136.748C111.747 138.483 106.64 139.669 99.1663 140.013C91.6761 140.356 89.2887 140.434 70.2171 140.434C51.1454 140.434 48.758 140.352 41.2681 140.013C33.794 139.673 28.6876 138.483 24.221 136.748C19.6061 134.953 15.6857 132.55 11.7848 128.649C8.2131 125.142 5.44936 120.898 3.6864 116.213C1.9505 111.747 0.7646 106.64 0.421302 99.1663C0.0780047 91.6761 0 89.2925 0 70.2171C0 51.1415 0.0818986 48.758 0.421302 41.2721C0.760706 33.794 1.9505 28.6876 3.6864 24.221C5.45019 19.5364 8.21374 15.2925 11.7848 11.7848C15.2919 8.2131 19.536 5.44936 24.221 3.6864C28.6876 1.9505 33.794 0.7646 41.2681 0.421302ZM98.5925 13.0604C91.1884 12.7249 88.9651 12.6508 70.2171 12.6508C51.4691 12.6508 49.2456 12.7249 41.8416 13.0604C34.9954 13.3725 31.2778 14.5154 28.8046 15.479C25.5278 16.7507 23.1872 18.272 20.7296 20.7296C18.276 23.1872 16.7507 25.5278 15.479 28.8046C14.5154 31.2778 13.3725 34.9954 13.0604 41.8416C12.7249 49.2456 12.6508 51.4691 12.6508 70.2171C12.6508 88.9651 12.7249 91.1884 13.0604 98.5925C13.3725 105.439 14.5154 109.156 15.479 111.63C16.6039 114.68 18.3981 117.439 20.7296 119.705C22.9951 122.036 25.7544 123.83 28.8046 124.955C31.2778 125.919 34.9954 127.062 41.8416 127.374C49.2456 127.71 51.4652 127.784 70.2171 127.784C88.9689 127.784 91.1884 127.71 98.5925 127.374C105.439 127.062 109.156 125.919 111.63 124.955C114.906 123.684 117.247 122.162 119.705 119.705C122.036 117.439 123.83 114.68 124.955 111.63C125.919 109.156 127.062 105.439 127.374 98.5925C127.71 91.1884 127.784 88.9651 127.784 70.2171C127.784 51.4691 127.71 49.2456 127.374 41.8416C127.062 34.9954 125.919 31.2778 124.955 28.8046C123.684 25.5278 122.162 23.1872 119.705 20.7296C117.247 18.276 114.906 16.7507 111.63 15.479C109.156 14.5154 105.439 13.3725 98.5925 13.0604ZM61.2516 91.8625C64.0942 93.0402 67.1403 93.646 70.2171 93.646C76.4313 93.646 82.3902 91.1775 86.7839 86.7839C91.1782 82.3902 93.6466 76.4307 93.6466 70.2171C93.6466 64.0035 91.1782 58.044 86.7839 53.6502C82.3902 49.2564 76.4313 46.788 70.2171 46.788C67.1403 46.788 64.0942 47.394 61.2516 48.5714C58.4085 49.7488 55.826 51.4746 53.6504 53.6502C51.4748 55.8258 49.749 58.4085 48.5716 61.251C47.3942 64.0935 46.7882 67.1403 46.7882 70.2171C46.7882 73.2939 47.3942 76.3407 48.5716 79.1832C49.749 82.0257 51.4748 84.6084 53.6504 86.7839C55.826 88.9593 58.4085 90.6854 61.2516 91.8625ZM44.6967 44.6964C51.4652 37.928 60.6452 34.1254 70.2171 34.1254C79.7896 34.1254 88.9695 37.928 95.7378 44.6964C102.506 51.4649 106.309 60.6452 106.309 70.2171C106.309 79.789 102.506 88.9689 95.7378 95.7378C88.9695 102.506 79.7896 106.309 70.2171 106.309C60.6452 106.309 51.4652 102.506 44.6967 95.7378C37.9282 88.9689 34.1257 79.789 34.1257 70.2171C34.1257 60.6452 37.9282 51.4649 44.6967 44.6964ZM114.312 39.5027C115.911 37.9027 116.81 35.7328 116.81 33.4701C116.81 31.2074 115.911 29.0374 114.312 27.4375C112.711 25.8376 110.542 24.9387 108.279 24.9387C106.016 24.9387 103.846 25.8376 102.246 27.4375C100.646 29.0374 99.7472 31.2074 99.7472 33.4701C99.7472 35.7328 100.646 37.9027 102.246 39.5027C103.846 41.1027 106.016 42.0015 108.279 42.0015C110.542 42.0015 112.711 41.1027 114.312 39.5027Z" fill="#366595"/>
</svg>
