<svg width="141" height="141" viewBox="0 0 141 141" fill="none" xmlns="http://www.w3.org/2000/svg">
<path fill-rule="evenodd" clip-rule="evenodd" d="M0 11.7321C0 8.62056 1.23607 5.63645 3.43626 3.43626C5.63645 1.23607 8.62056 0 11.7321 0H128.702C130.243 0 131.768 0.303479 133.191 0.893074C134.615 1.48267 135.908 2.34683 136.998 3.43626C138.087 4.5257 138.951 5.81903 139.541 7.24239C140.13 8.66582 140.434 10.1914 140.434 11.7321V128.702C140.434 130.243 140.13 131.768 139.541 133.191C138.951 134.615 138.087 135.908 136.998 136.998C135.908 138.087 134.615 138.951 133.191 139.541C131.768 140.13 130.243 140.434 128.702 140.434H11.7321C8.62056 140.434 5.63645 139.198 3.43626 136.998C1.23607 134.797 0 131.814 0 128.702V11.7321ZM55.5884 53.5405H74.6059V63.0961C77.347 57.6011 84.3716 52.6627 94.9244 52.6627C115.153 52.6627 119.954 63.5992 119.954 83.6662V120.832H99.4741V88.2363C99.4741 76.8089 96.7329 70.3633 89.7607 70.3633C80.0913 70.3633 76.0684 77.3119 76.0684 88.2363V120.832H55.5884V53.5405ZM20.4799 119.954H40.9599V52.6627H20.4799V119.954ZM43.8856 30.7199C43.8856 32.4489 43.5451 34.1609 42.8835 35.7582C42.2218 37.3555 41.252 38.8069 40.0295 40.0295C38.8069 41.252 37.3555 42.2218 35.7582 42.8835C34.1609 43.5451 32.4489 43.8856 30.7199 43.8856C28.991 43.8856 27.279 43.5451 25.6817 42.8835C24.0843 42.2218 22.633 41.252 21.4104 40.0295C20.1878 38.8069 19.2181 37.3555 18.5564 35.7582C17.8948 34.1609 17.5542 32.4489 17.5542 30.7199C17.5542 27.2282 18.9413 23.8794 21.4104 21.4104C23.8794 18.9413 27.2282 17.5542 30.7199 17.5542C34.2117 17.5542 37.5604 18.9413 40.0295 21.4104C42.4985 23.8794 43.8856 27.2282 43.8856 30.7199Z" fill="#366595"/>
</svg>
