<svg width="73" height="73" viewBox="0 0 73 73" fill="none" xmlns="http://www.w3.org/2000/svg">
<path d="M68.8484 48.5076C69.5851 46.7504 67.4802 45.2572 65.7122 46.0369C62.1907 47.5842 58.3741 48.3812 54.5146 48.3758C39.4023 48.3758 27.1526 36.3726 27.1526 21.5648C27.1526 16.3821 28.6533 11.5437 31.2506 7.44376C32.2736 5.82893 31.0423 3.58714 29.1668 4.0656C14.686 7.7593 4 20.6574 4 36.0013C4 54.2264 19.0765 68.9993 37.6765 68.9993C51.7576 68.9993 63.82 60.5314 68.8484 48.5076Z" stroke="#CAD959" stroke-width="7.15933"/>
<path d="M49.5403 4.37024C47.6267 3.09431 45.3442 5.37456 46.6203 7.29052L48.896 10.7035C49.8187 12.087 50.3109 13.7127 50.3109 15.3756C50.3109 17.0384 49.8187 18.6641 48.896 20.0476L46.6203 23.4606C45.3442 25.3745 47.6267 27.6568 49.5424 26.3788L52.9531 24.1049C54.3368 23.1824 55.9622 22.6901 57.6251 22.6901C59.288 22.6901 60.9133 23.1824 62.2971 24.1049L65.7099 26.3788C67.6238 27.6568 69.906 25.3745 68.628 23.4585L66.3541 20.0476C65.4315 18.6641 64.9393 17.0384 64.9393 15.3756C64.9393 13.7127 65.4315 12.087 66.3541 10.7035L68.6298 7.29052C69.906 5.37665 67.6238 3.09431 65.7078 4.37234L62.2971 6.64627C60.9133 7.56872 59.288 8.06098 57.6251 8.06098C55.9622 8.06098 54.3368 7.56872 52.9531 6.64627L49.5403 4.37024Z" stroke="#CAD959" stroke-width="7.15933"/>
</svg>
