<svg width="73" height="73" viewBox="0 0 73 73" fill="none" xmlns="http://www.w3.org/2000/svg">
<path d="M68.8484 48.5076C69.5851 46.7504 67.4802 45.2572 65.7122 46.0369C62.1907 47.5842 58.3741 48.3812 54.5146 48.3758C39.4023 48.3758 27.1526 36.3726 27.1526 21.5648C27.1526 16.3821 28.6533 11.5437 31.2506 7.44376C32.2736 5.82893 31.0423 3.58714 29.1668 4.0656C14.686 7.7593 4 20.6574 4 36.0013C4 54.2264 19.0765 68.9993 37.6765 68.9993C51.7576 68.9993 63.82 60.5314 68.8484 48.5076Z" stroke="#DEB7DC" stroke-width="7.15933"/>
<path d="M49.5405 4.37024C47.627 3.09431 45.3444 5.37456 46.6206 7.29052L48.8963 10.7035C49.8189 12.087 50.3111 13.7127 50.3111 15.3756C50.3111 17.0384 49.8189 18.6641 48.8963 20.0476L46.6206 23.4606C45.3444 25.3745 47.627 27.6568 49.5427 26.3788L52.9533 24.1049C54.3371 23.1824 55.9624 22.6901 57.6253 22.6901C59.2882 22.6901 60.9136 23.1824 62.2973 24.1049L65.7102 26.3788C67.624 27.6568 69.9062 25.3745 68.6283 23.4585L66.3544 20.0476C65.4318 18.6641 64.9396 17.0384 64.9396 15.3756C64.9396 13.7127 65.4318 12.087 66.3544 10.7035L68.6301 7.29052C69.9062 5.37665 67.624 3.09431 65.708 4.37234L62.2973 6.64627C60.9136 7.56872 59.2882 8.06098 57.6253 8.06098C55.9624 8.06098 54.3371 7.56872 52.9533 6.64627L49.5405 4.37024Z" stroke="#DEB7DC" stroke-width="7.15933"/>
</svg>
